<?xml version="1.0" encoding="utf-8"?>
<!-- Generator: Adobe Illustrator 15.0.0, SVG Export Plug-In . SVG Version: 6.00 Build 0)  -->
<!DOCTYPE svg PUBLIC "-//W3C//DTD SVG 1.1//EN" "http://www.w3.org/Graphics/SVG/1.1/DTD/svg11.dtd">
<svg version="1.1" id="Layer_1" xmlns="http://www.w3.org/2000/svg" xmlns:xlink="http://www.w3.org/1999/xlink" x="0px" y="0px"
	 width="32px" height="32px" viewBox="0 0 32 32" enable-background="new 0 0 32 32" xml:space="preserve">
<polygon fill-rule="evenodd" clip-rule="evenodd" fill="#34B5C7" points="24.5,5 21,5 21,12 12,12 12,5 5,5 5,27 9,27 9,18 23,18 
	23,27 27,27 27,7.5 "/>
<g>
	<g>
		<path fill="#413A4D" d="M18,11h2V6h-2V11z M27.707,6.793l-2.5-2.5C25.02,4.105,24.765,4,24.5,4H5C4.447,4,4,4.447,4,5v22
			c0,0.552,0.447,1,1,1h11.311l-1.622,1.621l0.707,0.707l2.828-2.828l-2.828-2.828l-0.707,0.707L16.311,27H9v-9h14v10h4
			c0.552,0,1-0.448,1-1V7.5C28,7.234,27.895,6.98,27.707,6.793z M12,5h9v7h-9V5z M27,27h-3v-9c0-0.553-0.447-1-1-1H9
			c-0.553,0-1,0.447-1,1v9H5V5h6v7c0,0.553,0.447,1,1,1h9c0.553,0,1-0.447,1-1V5h2.5L27,7.5V27z"/>
	</g>
</g>
</svg>
