<?xml version="1.0" encoding="utf-8"?>
<!-- Generator: Adobe Illustrator 15.0.0, SVG Export Plug-In . SVG Version: 6.00 Build 0)  -->
<!DOCTYPE svg PUBLIC "-//W3C//DTD SVG 1.1//EN" "http://www.w3.org/Graphics/SVG/1.1/DTD/svg11.dtd">
<svg version="1.1" id="Layer_1" xmlns="http://www.w3.org/2000/svg" xmlns:xlink="http://www.w3.org/1999/xlink" x="0px" y="0px"
	 width="32px" height="32px" viewBox="0 0 32 32" enable-background="new 0 0 32 32" xml:space="preserve">
<path fill="#413A4D" d="M6,9h4.5C11.329,9,12,8.328,12,7.5V3c0,0,12.5,0,13.5,0C25.776,3,26,3.224,26,3.5v25
	c0,0.275-0.224,0.5-0.5,0.5h-19C6.225,29,6,28.775,6,28.5C6,28,6,9,6,9z M10.5,8c0,0-1.641,0-3.5,0l4-4v3.5
	C11,7.776,10.775,8,10.5,8z M5,28.5C5,29.328,5.672,30,6.5,30h19c0.828,0,1.5-0.672,1.5-1.5v-25C27,2.672,26.328,2,25.5,2H12
	c-0.621,0-0.646,0.232-1,0.586L5.586,8C5.232,8.354,5,8.368,5,9V28.5z"/>
<path fill="#8BC72A" d="M12.6,23.3L9.375,19l3.225-4.3l0.8,0.6L10.625,19l2.775,3.7L12.6,23.3z M22.625,19L19.4,14.7L18.6,15.3
	l2.775,3.7L18.6,22.7l0.801,0.6L22.625,19z"/>
<path fill-rule="evenodd" clip-rule="evenodd" fill="#34B5C7" d="M24,5h-1V1h1V5z M24,8h-1v4h1V8z M29,7V6h-4v1H29z M22,7V6h-4v1H22
	z"/>
</svg>
