<?xml version="1.0" encoding="utf-8"?>
<!-- Generator: Adobe Illustrator 15.0.0, SVG Export Plug-In . SVG Version: 6.00 Build 0)  -->
<!DOCTYPE svg PUBLIC "-//W3C//DTD SVG 1.1//EN" "http://www.w3.org/Graphics/SVG/1.1/DTD/svg11.dtd">
<svg version="1.1" id="Layer_1" xmlns="http://www.w3.org/2000/svg" xmlns:xlink="http://www.w3.org/1999/xlink" x="0px" y="0px"
	 width="32px" height="32px" viewBox="0 0 32 32" enable-background="new 0 0 32 32" xml:space="preserve">
<path fill-rule="evenodd" clip-rule="evenodd" fill="#E66910" d="M4.195,29c0.086-0.482,0.929-3.71,1.512-4.293
	C6.164,24.25,8.461,23.006,10.771,22c0,0,2.521,3,5.229,3s5.227-3.001,5.227-3.001c2.311,1.006,4.608,2.25,5.066,2.708
	c0.583,0.583,1.426,3.811,1.512,4.293H4.195z"/>
<g>
	<g>
		<path fill-rule="evenodd" clip-rule="evenodd" fill="#34B5C7" d="M14,7c3-0.413,4.107-0.809,5.107-1.809
			c0.853,1.706,2.346,2.54,2.77,2.75C21.517,5.416,20.202,3,16,3c-4.635,0-5.76,2.94-5.961,5.724C10.226,7.891,11.315,7.369,14,7z
			 M19,15h-6c-1.564,0-2.508-1.22-2.849-2.232c0.189,1.888,0.57,3.781,1.235,4.724C11.921,18.254,13.757,20,16.007,20
			c2.252,0,4.061-1.736,4.585-2.481c0.696-0.989,1.077-2.89,1.262-4.769C21.52,13.765,20.574,15,19,15z M18.927,16.524
			C18.491,17.235,17.39,18,16,18s-2.491-0.765-2.926-1.476c-0.095-0.154-0.098-0.348-0.01-0.505
			c0.088-0.159,0.255-0.256,0.436-0.256h5c0.182,0,0.348,0.098,0.437,0.256C19.024,16.177,19.021,16.37,18.927,16.524z"/>
	</g>
</g>
<g>
	<g>
		<path fill-rule="evenodd" clip-rule="evenodd" fill="#413A4D" d="M13.5,10.5c-0.439,0-0.796,0.448-0.796,1s0.356,1,0.796,1
			s0.796-0.448,0.796-1S13.939,10.5,13.5,10.5z M11.478,9.564l0.49,0.872C11.976,10.432,12.758,10,13.5,10
			c0.805,0,1.633,0.229,1.642,0.231l0.271-0.963C15.374,9.258,14.447,9,13.5,9C12.492,9,11.519,9.541,11.478,9.564z M5.707,24.707
			c0.59-0.59,4.241-2.488,7.032-3.498l0.321-1.001C13.912,20.669,14.906,21,16.007,21c2.636,0,4.682-1.84,5.464-2.986
			C22.708,16.208,23,12.333,23,9.857C23,5.756,21.636,2,16,2c-5.638,0-7,3.756-7,7.857c0,2.475,0.292,6.352,1.509,8.133
			c0.327,0.479,0.883,1.073,1.599,1.609l-0.299,0.918C8.947,21.582,5.709,23.291,5,24c-1,1-2,6-2,6h26v-1H4.195
			C4.281,28.518,5.124,25.29,5.707,24.707z M11.387,17.492C10.358,16.032,10,12.299,10,9.828c0-0.106,0.003-0.215,0.005-0.323
			c0.144-0.182,1.396-1.688,3.919-2.064l0.405-0.06c2.521-0.374,3.565-0.528,4.778-2.19l-0.807-0.59
			c-0.968,1.324-1.635,1.422-4.118,1.791l-0.406,0.06c-1.725,0.258-2.919,0.97-3.667,1.572C10.454,5.469,11.753,3,16,3
			c5.259,0,6,3.782,6,6.828c0,2.437-0.329,6.157-1.407,7.69C20.068,18.264,18.26,20,16.007,20
			C13.757,20,11.921,18.254,11.387,17.492z M18.5,10.5c-0.439,0-0.796,0.448-0.796,1s0.356,1,0.796,1s0.796-0.448,0.796-1
			S18.939,10.5,18.5,10.5z M18.5,10c0.742,0,1.525,0.432,1.533,0.436l0.489-0.872C20.481,9.541,19.508,9,18.5,9
			c-0.947,0-1.874,0.258-1.913,0.269l0.271,0.963C16.866,10.229,17.689,10,18.5,10z M20,24h9v-1h-9V24z M20,21v1h9v-1H20z M20,28h9
			v-1h-9V28z M20,26h9v-1h-9V26z"/>
	</g>
</g>
</svg>
