<?xml version="1.0" encoding="utf-8"?>
<!-- Generator: Adobe Illustrator 15.0.0, SVG Export Plug-In . SVG Version: 6.00 Build 0)  -->
<!DOCTYPE svg PUBLIC "-//W3C//DTD SVG 1.1//EN" "http://www.w3.org/Graphics/SVG/1.1/DTD/svg11.dtd">
<svg version="1.1" id="Layer_1" xmlns="http://www.w3.org/2000/svg" xmlns:xlink="http://www.w3.org/1999/xlink" x="0px" y="0px"
	 width="32px" height="32px" viewBox="0 0 32 32" enable-background="new 0 0 32 32" xml:space="preserve">
<path fill="#8BC72A" d="M2.246,26c0.062-0.349,0.479-3.212,0.9-3.633c0.426-0.426,3.753-1.525,5.768-2.255l2.585,3l2.585-3
	c1.173,0.424,2.731,1.008,3.912,1.507c0,0-0.25,1.202-0.497,1.254c-2,0.421-5.81,2.778-5.747,3.127H2.246z"/>
<g>
	<g>
		<path fill-rule="evenodd" clip-rule="evenodd" fill="#34B5C7" d="M14.188,14c-1.792,0-3.583,0-5.375,0
			c-1.426,0-2.274-0.486-2.565-1.099c0.163,1.602,0.506,3.233,1.12,4.034C7.846,17.563,9.491,19,11.506,19
			c1.802,0,3.281-1.137,3.912-1.817c-0.189-1.095-0.274-2.278-0.288-3.273C14.848,13.963,14.54,14,14.188,14z M14.427,15.524
			C13.991,16.235,12.89,17,11.5,17s-2.491-0.765-2.926-1.476c-0.095-0.154-0.098-0.348-0.01-0.505
			C8.652,14.861,8.819,14.764,9,14.764h5c0.182,0,0.348,0.098,0.437,0.256C14.524,15.177,14.521,15.37,14.427,15.524z M10.25,8.792
			c2.688-0.34,3.138-1.164,4.033-1.987c0.765,1.405,2.102,2.091,2.481,2.264C16.442,6.989,15.264,5,11.5,5
			c-4.708,0-5.375,3.115-5.375,5.623c0,0.352,0.014,0.74,0.034,1.138C6.331,10.862,7.755,9.107,10.25,8.792z"/>
	</g>
</g>
<path fill-rule="evenodd" clip-rule="evenodd" fill="#34B5C7" d="M11.246,29c0.062-0.349,0.479-3.212,0.9-3.633
	c0.426-0.426,3.753-1.525,5.768-2.255l2.586,3l2.585-3c2.016,0.729,5.167,1.931,5.594,2.356C29.1,25.89,29.69,28.651,29.753,29
	H11.246z"/>
<g>
	<g>
		<path fill-rule="evenodd" clip-rule="evenodd" fill="#E66910" d="M19.25,11.792c2.688-0.34,3.138-1.164,4.033-1.987
			c0.765,1.405,2.103,2.091,2.481,2.264C25.442,9.989,24.265,8,20.5,8c-4.708,0-5.375,3.115-5.375,5.623
			c0,0.352,0.014,0.74,0.034,1.139C15.331,13.862,16.755,12.107,19.25,11.792z M23.188,17h-5.375c-1.426,0-2.274-0.486-2.565-1.1
			c0.163,1.603,0.506,3.233,1.12,4.034C16.846,20.563,18.49,22,20.506,22c2.019,0,3.639-1.43,4.108-2.043
			c0.642-0.84,0.983-2.475,1.143-4.065C25.471,16.509,24.62,17,23.188,17z M23.427,18.524C22.991,19.235,21.89,20,20.5,20
			s-2.491-0.765-2.926-1.476c-0.096-0.154-0.099-0.348-0.01-0.505c0.088-0.158,0.254-0.256,0.436-0.256h5
			c0.182,0,0.348,0.098,0.437,0.256C23.524,18.177,23.521,18.37,23.427,18.524z"/>
	</g>
</g>
<g>
	<g>
		<path fill-rule="evenodd" clip-rule="evenodd" fill="#413A4D" d="M23,15.27c0.338,0,0.612-0.345,0.612-0.77S23.338,13.73,23,13.73
			s-0.612,0.345-0.612,0.77S22.662,15.27,23,15.27z M31,30c0,0-0.81-4.038-1.614-4.843c-0.572-0.572-3.19-1.954-5.5-2.813
			l-0.146-0.447c0.652-0.466,1.158-0.991,1.45-1.411c1.059-1.52,1.31-4.784,1.31-6.868c0-3.454-1.169-6.617-6-6.617
			c-1.418,0-2.513,0.278-3.363,0.75C16.505,5.594,14.926,4,11.5,4c-4.832,0-6,3.164-6,6.617c0,2.084,0.25,5.35,1.293,6.85
			c0.295,0.424,0.808,0.954,1.469,1.424l-0.148,0.453c-2.31,0.859-4.925,2.241-5.499,2.813C1.807,22.962,1,27,1,27h9.763
			C10.322,28.39,10,30,10,30H31z M28.679,25.864c0.255,0.279,0.704,1.616,1.074,3.136H11.246c0.37-1.52,0.82-2.856,1.077-3.137
			c0.375-0.374,2.75-1.693,5.14-2.582l0.451-0.169l0.226-0.69C18.833,22.764,19.632,23,20.506,23c0.873,0,1.667-0.233,2.355-0.572
			l0.224,0.685l0.452,0.169C25.931,24.172,28.304,25.489,28.679,25.864z M20.5,8c3.458,0,5,1.732,5,5.617
			c0,2.26-0.297,5.101-1.13,6.297C23.868,20.637,22.417,22,20.506,22c-1.78,0-3.303-1.259-3.893-2.105
			c-0.676-0.973-1.113-3.436-1.113-6.277C15.5,9.732,17.042,8,20.5,8z M7.614,16.895C6.937,15.922,6.5,13.459,6.5,10.617
			C6.5,6.732,8.042,5,11.5,5c2.7,0,4.217,1.074,4.759,3.385C14.918,9.63,14.5,11.57,14.5,13.617c0,1.125,0.078,2.59,0.31,3.939
			C14.099,18.242,12.931,19,11.506,19C9.726,19,8.203,17.741,7.614,16.895z M15.324,19.521c-0.146-0.058-0.293-0.124-0.438-0.178
			l-0.146-0.447c0.109-0.077,0.207-0.158,0.307-0.238C15.127,18.965,15.22,19.252,15.324,19.521z M2.246,26
			c0.37-1.52,0.82-2.856,1.077-3.137c0.375-0.374,2.75-1.693,5.139-2.582l0.452-0.169l0.225-0.69C9.833,19.764,10.632,20,11.506,20
			c0.873,0,1.667-0.233,2.355-0.572l0.224,0.685l0.452,0.169c0.574,0.214,1.135,0.452,1.677,0.695
			c0.278,0.304,0.632,0.618,1.048,0.914l-0.148,0.453c-2.31,0.859-4.924,2.241-5.498,2.813c-0.166,0.165-0.331,0.469-0.489,0.843
			H2.246z M9,10.73c-0.338,0-0.612,0.345-0.612,0.77S8.662,12.27,9,12.27s0.612-0.345,0.612-0.77S9.338,10.73,9,10.73z M14,12.27
			c0.338,0,0.612-0.345,0.612-0.77S14.338,10.73,14,10.73s-0.612,0.345-0.612,0.77S13.662,12.27,14,12.27z M18,15.27
			c0.338,0,0.612-0.345,0.612-0.77S18.338,13.73,18,13.73s-0.612,0.345-0.612,0.77S17.662,15.27,18,15.27z"/>
	</g>
</g>
</svg>
