<?xml version="1.0" encoding="utf-8"?>
<!-- Generator: Adobe Illustrator 15.0.0, SVG Export Plug-In . SVG Version: 6.00 Build 0)  -->
<!DOCTYPE svg PUBLIC "-//W3C//DTD SVG 1.1//EN" "http://www.w3.org/Graphics/SVG/1.1/DTD/svg11.dtd">
<svg version="1.1" id="Layer_1" xmlns="http://www.w3.org/2000/svg" xmlns:xlink="http://www.w3.org/1999/xlink" x="0px" y="0px"
	 width="32px" height="32px" viewBox="0 0 32 32" enable-background="new 0 0 32 32" xml:space="preserve">
<g>
	<path fill-rule="evenodd" clip-rule="evenodd" fill="#8BC72A" d="M9,16H8c0,4.418,3.582,8,8,8v-1C12.134,23,9,19.866,9,16z"/>
	<path fill-rule="evenodd" clip-rule="evenodd" fill="#8BC72A" d="M28,16H16v12C22.627,28,28,22.627,28,16z"/>
</g>
<g>
	<path fill="#34B5C7" d="M24,16h-1c0,3.866-3.134,7-7,7v1C20.418,24,24,20.418,24,16z"/>
	<path fill-rule="evenodd" clip-rule="evenodd" fill="#34B5C7" d="M16,4v3.466L15,8.5l1,1.035V16h12C28,9.373,22.627,4,16,4z"/>
</g>
<g>
	<path fill-rule="evenodd" clip-rule="evenodd" fill="#413A4D" d="M16,4c6.616,0,12,5.383,12,12c0,6.616-5.384,12-12,12
		C9.383,28,4,22.616,4,16C4,9.383,9.383,4,16,4 M16,3C8.821,3,3,8.821,3,16s5.821,13,13,13s13-5.821,13-13S23.179,3,16,3L16,3z"/>
	<path fill="#413A4D" d="M16,9c3.866,0,7,3.134,7,7h1c0-4.418-3.582-8-8-8c-0.385,0-0.76,0.037-1.13,0.089l0.37,0.954
		C15.49,9.016,15.743,9,16,9z"/>
	<polygon fill="#413A4D" points="16.646,11.354 13.793,8.5 16.646,5.646 17.354,6.354 15.207,8.5 17.354,10.646 	"/>
</g>
</svg>
