<?xml version="1.0" encoding="utf-8"?>
<!-- Generator: Adobe Illustrator 15.0.0, SVG Export Plug-In . SVG Version: 6.00 Build 0)  -->
<!DOCTYPE svg PUBLIC "-//W3C//DTD SVG 1.1//EN" "http://www.w3.org/Graphics/SVG/1.1/DTD/svg11.dtd">
<svg version="1.1" id="Layer_1" xmlns="http://www.w3.org/2000/svg" xmlns:xlink="http://www.w3.org/1999/xlink" x="0px" y="0px"
	 width="32px" height="32px" viewBox="0 0 32 32" enable-background="new 0 0 32 32" xml:space="preserve">
<g>
	<g>
		<path fill-rule="evenodd" clip-rule="evenodd" fill="#8BC72A" d="M16,16V4.02C9.499,4.277,4.286,9.494,4.029,16H16z"/>
	</g>
</g>
<g>
	<g>
		<path fill-rule="evenodd" clip-rule="evenodd" fill="#413A4D" d="M27.123,9.963C25.009,6.527,21.291,4.189,17,4.02V16h6.563
			C23.854,13.654,25.16,11.547,27.123,9.963z"/>
	</g>
</g>
<g>
	<g>
		<path fill-rule="evenodd" clip-rule="evenodd" fill="#34B5C7" d="M11.625,29c2.365,0,2.692-1.2,4.375-1.404V17H4.028
			C4.282,21.671,8.005,29,11.625,29z M23.5,17H17v10.607C18.625,27.819,19.021,29,21.375,29c2.03,0,4.093-2.288,5.558-5.13
			C24.811,22.077,23.5,19.664,23.5,17z"/>
	</g>
</g>
<g>
	<g>
		<path fill-rule="evenodd" clip-rule="evenodd" fill="#413A4D" d="M29.889,3.889l-0.707-0.707l-4.175,4.175
			C22.889,5.384,20.091,4.142,17,4.019V16h6.563c0.292-2.35,1.601-4.459,3.569-6.045c-0.416-0.673-0.891-1.306-1.422-1.887
			L29.889,3.889z M25.823,9.795c-1.552,1.454-2.648,3.237-3.097,5.205H18V5.097C21.214,5.521,24.012,7.278,25.823,9.795z M23.5,17
			H17v10.607C18.625,27.819,19.021,29,21.375,29c2.028,0,4.088-2.291,5.555-5.132C24.81,22.076,23.5,19.663,23.5,17z M21.375,28
			c-1.097,0-1.623-0.299-2.232-0.646c-0.337-0.191-0.701-0.394-1.143-0.547V18h4.556c0.257,2.301,1.389,4.396,3.118,6.07
			C24.399,26.308,22.797,28,21.375,28z M3.889,3.182L3.182,3.889l4.142,4.142C5.375,10.145,4.15,12.928,4.027,16H16V4.019
			c-3.073,0.123-5.856,1.351-7.97,3.305L3.889,3.182z M15,5.104V15H5.113C5.787,9.858,9.86,5.779,15,5.104z M11.625,29
			c2.365,0,2.692-1.2,4.375-1.404V17H4.028C4.282,21.671,8.005,29,11.625,29z M15,26.802c-0.462,0.156-0.839,0.364-1.184,0.563
			C13.198,27.72,12.71,28,11.625,28c-2.607,0-5.826-5.673-6.491-10H15V26.802z"/>
	</g>
</g>
</svg>
