<?xml version="1.0" encoding="utf-8"?>
<!-- Generator: Adobe Illustrator 15.0.0, SVG Export Plug-In . SVG Version: 6.00 Build 0)  -->
<!DOCTYPE svg PUBLIC "-//W3C//DTD SVG 1.1//EN" "http://www.w3.org/Graphics/SVG/1.1/DTD/svg11.dtd">
<svg version="1.1" id="Layer_1" xmlns="http://www.w3.org/2000/svg" xmlns:xlink="http://www.w3.org/1999/xlink" x="0px" y="0px"
	 width="32px" height="32px" viewBox="0 0 32 32" enable-background="new 0 0 32 32" xml:space="preserve">
<g>
	<g>
		<path fill-rule="evenodd" clip-rule="evenodd" fill="#413A4D" d="M25,6h-1c0,0,0-0.224,0-0.5S23.776,5,23.5,5h-1
			C22.224,5,22,5.224,22,5.5S22,6,22,6h-3c0,0,0-0.224,0-0.5S18.776,5,18.5,5h-1C17.224,5,17,5.224,17,5.5S17,6,17,6h-3
			c0,0,0-0.224,0-0.5S13.776,5,13.5,5h-1C12.224,5,12,5.224,12,5.5S12,6,12,6H9c0,0,0-0.224,0-0.5S8.776,5,8.5,5h-1
			C7.224,5,7,5.224,7,5.5S7,6,7,6H6C5.448,6,5,6.448,5,7v19c0,0.553,0.448,1,1,1h19c0.553,0,1-0.447,1-1V7C26,6.448,25.553,6,25,6z
			 M25,21h-4v-4h4V21z M25,16H11v-4h14V16z"/>
	</g>
</g>
<rect x="16" y="7" fill="#34B5C7" width="9" height="4"/>
<path fill="#8BC72A" d="M15,11H6V7h9V11z M6,21h14v-4H6V21z"/>
<path fill="#E66910" d="M10,16H6v-4h4V16z M25,22H6v4h19V22z"/>
</svg>
