<?xml version="1.0" encoding="utf-8"?>
<!-- Generator: Adobe Illustrator 15.0.0, SVG Export Plug-In . SVG Version: 6.00 Build 0)  -->
<!DOCTYPE svg PUBLIC "-//W3C//DTD SVG 1.1//EN" "http://www.w3.org/Graphics/SVG/1.1/DTD/svg11.dtd">
<svg version="1.1" id="Layer_1" xmlns="http://www.w3.org/2000/svg" xmlns:xlink="http://www.w3.org/1999/xlink" x="0px" y="0px"
	 width="32px" height="32px" viewBox="0 0 32 32" enable-background="new 0 0 32 32" xml:space="preserve">
<path fill-rule="evenodd" clip-rule="evenodd" fill="#E66910" d="M18.506,16.984c0,0,6.846,5.826,7.752,6.732
	c0.977,0.977,0.977,2.559,0,3.535s-2.559,0.977-3.535,0c-0.857-0.857-6.716-7.768-6.716-7.768L18.506,16.984z"/>
<g>
	<g>
		<path fill-rule="evenodd" clip-rule="evenodd" fill="#34B5C7" d="M28.973,8.457l-2.955,2.956l-3.502-0.938l-0.938-3.501
			l2.955-2.956c-0.172-0.018-0.346-0.028-0.523-0.028c-2.76,0-5,2.239-5,5c0,0.949,0.277,1.825,0.735,2.579
			C16.217,14.601,6.44,23.015,5.738,23.717c-0.976,0.977-0.976,2.559,0,3.535c0.977,0.977,2.56,0.977,3.536,0
			c0.741-0.74,9.124-10.486,12.149-14.006c0.754,0.457,1.629,0.734,2.577,0.734c2.762,0,5-2.239,5-5
			C29,8.803,28.99,8.628,28.973,8.457z M14.542,19.156L8.177,25.52c-0.195,0.195-0.512,0.195-0.707,0s-0.195-0.512,0-0.707
			l6.364-6.363c0.195-0.195,0.512-0.195,0.707,0S14.737,18.961,14.542,19.156z"/>
	</g>
</g>
<g>
	<g>
		<path fill="#413A4D" d="M24,14.979c3.314,0,6-2.687,6-6c0-0.438-0.047-0.865-0.137-1.276C29.73,7.105,29.018,6.988,28.6,7.407
			c-0.393,0.393-2.881,2.881-2.881,2.881L23.34,9.65l0.002,0.008l-0.01-0.01L23.34,9.65l-0.637-2.378c0,0,2.488-2.488,2.881-2.881
			c0.418-0.418,0.301-1.132-0.297-1.264c-0.412-0.09-0.838-0.138-1.277-0.138c-3.313,0-6,2.687-6,6c0,0.892,0.199,1.734,0.547,2.494
			c-0.943,0.8-2.046,1.734-3.209,2.722L9.5,8.357V6.443L5.373,3.691l-2.66,2.659l2.751,4.128h1.914l5.674,5.674
			c-3.921,3.33-7.78,6.615-8.021,6.857c-1.367,1.367-1.367,3.582,0,4.949c1.367,1.367,3.583,1.367,4.95,0
			c0.198-0.198,2.981-3.463,6.016-7.034c2.402,2.832,5.718,6.733,6.035,7.05c1.367,1.367,3.582,1.367,4.949,0s1.367-3.582,0-4.949
			c-0.295-0.295-4.535-3.905-7.392-6.332c0.69-0.813,1.339-1.578,1.918-2.261C22.267,14.78,23.108,14.979,24,14.979z M7.799,9.484
			H6.006l-2-3l1.5-1.5l3,2v1.793l6.076,6.076c-0.254,0.215-0.508,0.432-0.765,0.649L7.799,9.484z M26.258,23.717
			c0.977,0.977,0.977,2.559,0,3.535s-2.559,0.977-3.535,0c-0.688-0.688-4.593-5.27-6.109-7.053c0.289-0.34,0.577-0.68,0.865-1.02
			l6.355,6.355c0.195,0.195,0.512,0.195,0.707,0s0.195-0.512,0-0.707l-6.363-6.363c-0.018-0.018-0.04-0.024-0.059-0.039
			c0.294-0.347,0.586-0.69,0.872-1.027C20.555,18.731,25.496,22.955,26.258,23.717z M9.274,27.252c-0.977,0.977-2.56,0.977-3.536,0
			c-0.976-0.977-0.976-2.559,0-3.535c0.702-0.702,10.479-9.116,14.007-12.148c-0.458-0.754-0.735-1.63-0.735-2.579
			c0-2.761,2.24-5,5-5c0.178,0,0.352,0.01,0.523,0.028l-2.955,2.956l0.938,3.501l3.502,0.938l2.955-2.956
			C28.99,8.628,29,8.803,29,8.979c0,2.761-2.238,5-5,5c-0.948,0-1.823-0.277-2.577-0.734C18.397,16.766,10.015,26.512,9.274,27.252z
			"/>
	</g>
</g>
</svg>
