<?xml version="1.0" encoding="utf-8"?>
<!-- Generator: Adobe Illustrator 15.0.0, SVG Export Plug-In . SVG Version: 6.00 Build 0)  -->
<!DOCTYPE svg PUBLIC "-//W3C//DTD SVG 1.1//EN" "http://www.w3.org/Graphics/SVG/1.1/DTD/svg11.dtd">
<svg version="1.1" id="Layer_1" xmlns="http://www.w3.org/2000/svg" xmlns:xlink="http://www.w3.org/1999/xlink" x="0px" y="0px"
	 width="32px" height="32px" viewBox="0 0 32 32" enable-background="new 0 0 32 32" xml:space="preserve">
<path fill-rule="evenodd" clip-rule="evenodd" fill="#34B5C7" d="M6,14h7v1H6V14z M6,17h14v1H6V17z M6,20h14v1H6V20z M6,23h14v1H6
	V23z M6,26h14v1H6V26z"/>
<path fill-rule="evenodd" clip-rule="evenodd" fill="#E66910" d="M15,8h4v1h-4V8z M26,11h-8l1,1h7V11z M21,14h5v1h-5V14z M21,17h5v1
	h-5V17z M21,20h5v1h-5V20z"/>
<path fill="#413A4D" d="M27.414,8L21,1.586C20.646,1.232,20.621,1,20,1h-8.5C10.672,1,10,1.672,10,2.5V7H5.5C4.672,7,4,7.672,4,8.5
	v21C4,30.328,4.672,31,5.5,31h15c0.828,0,1.5-0.672,1.5-1.5V25h4.5c0.828,0,1.5-0.672,1.5-1.5V9C28,8.368,27.768,8.354,27.414,8z
	 M21,3l5,5c-1.859,0-4.5,0-4.5,0C21.225,8,21,7.776,21,7.5V3z M21,29.5c0,0.275-0.225,0.5-0.5,0.5h-15C5.224,30,5,29.775,5,29.5v-21
	C5,8.224,5.224,8,5.5,8c1,0,8.5,0,8.5,0v5.5c0,0.828,0.671,1.5,1.5,1.5H21C21,15,21,29,21,29.5z M15,13.5V9l5,5
	c-1.859,0-4.5,0-4.5,0C15.224,14,15,13.776,15,13.5z M27,23.5c0,0.275-0.225,0.5-0.5,0.5H22v-9c0-0.632-0.232-0.646-0.586-1
	L15,7.586C14.646,7.232,14.621,7,14,7h-3V2.5C11,2.224,11.224,2,11.5,2c1,0,8.5,0,8.5,0v5.5C20,8.328,20.672,9,21.5,9H27
	C27,9,27,23,27,23.5z"/>
</svg>
