<?xml version="1.0" encoding="utf-8"?>
<!-- Generator: Adobe Illustrator 15.0.0, SVG Export Plug-In . SVG Version: 6.00 Build 0)  -->
<!DOCTYPE svg PUBLIC "-//W3C//DTD SVG 1.1//EN" "http://www.w3.org/Graphics/SVG/1.1/DTD/svg11.dtd">
<svg version="1.1" id="Layer_1" xmlns="http://www.w3.org/2000/svg" xmlns:xlink="http://www.w3.org/1999/xlink" x="0px" y="0px"
	 width="32px" height="32px" viewBox="0 0 32 32" enable-background="new 0 0 32 32" xml:space="preserve">
<rect x="4" y="9" fill-rule="evenodd" clip-rule="evenodd" fill="#34B5C7" width="24" height="14"/>
<g>
	<g>
		<path fill-rule="evenodd" clip-rule="evenodd" fill="#413A4D" d="M28,6H4C2.343,6,1,7.343,1,9v14c0,1.656,1.343,3,3,3h1
			c0,1.656,1.343,3,3,3h16c1.656,0,3-1.344,3-3h1c1.656,0,3-1.344,3-3V9C31,7.343,29.656,6,28,6z M30,23c0,1.104-0.896,2-2,2h-1
			v-9.5c0-1.381-1.119-2.5-2.5-2.5H17l1.621-1.622l-0.707-0.706L15.086,13.5l2.828,2.828l0.707-0.706L17,14h7.5
			c0.828,0,1.5,0.671,1.5,1.5V16c0,1.104-0.896,2-2,2H8c-1.657,0-3,1.344-3,3v4H4c-1.104,0-2-0.896-2-2V9c0-1.104,0.896-2,2-2h24
			c1.104,0,2,0.896,2,2V23z"/>
	</g>
</g>
<path fill="#8BC72A" d="M24,28H8c-1.104,0-2-0.896-2-2v-5c0-1.104,0.896-2,2-2h16c0.771,0,1.469-0.3,2-0.779V26
	C26,27.104,25.104,28,24,28z"/>
<path fill-rule="evenodd" clip-rule="evenodd" fill="#413A4D" d="M15.5,24.85l-2.122-2.121l-0.706,0.707l2.828,2.828l5.6-5.6
	l-0.707-0.707L15.5,24.85z"/>
</svg>
