<?xml version="1.0" encoding="utf-8"?>
<!-- Generator: Adobe Illustrator 15.0.0, SVG Export Plug-In . SVG Version: 6.00 Build 0)  -->
<!DOCTYPE svg PUBLIC "-//W3C//DTD SVG 1.1//EN" "http://www.w3.org/Graphics/SVG/1.1/DTD/svg11.dtd">
<svg version="1.1" id="Layer_1" xmlns="http://www.w3.org/2000/svg" xmlns:xlink="http://www.w3.org/1999/xlink" x="0px" y="0px"
	 width="32px" height="32px" viewBox="0 0 32 32" enable-background="new 0 0 32 32" xml:space="preserve">
<path fill-rule="evenodd" clip-rule="evenodd" fill="#34B5C7" d="M8.259,22.327C6.848,20.604,6,18.401,6,16c0-5.523,4.477-10,10-10
	c2.401,0,4.604,0.848,6.327,2.259L8.259,22.327z M23.741,9.673L9.673,23.741C11.396,25.152,13.599,26,16,26c5.522,0,10-4.478,10-10
	C26,13.599,25.152,11.396,23.741,9.673z"/>
<path fill-rule="evenodd" clip-rule="evenodd" fill="#413A4D" d="M11.993,12.342c0-1.396,0.814-2.99,3.007-3.281V7h1v2.021
	c2.186,0.11,3.141,1.393,3.385,1.803l-0.859,0.512C18.393,11.111,17.634,10,15.715,10c-2.526,0-2.722,1.793-2.722,2.342
	c0,0.974,0.324,1.935,2.792,2.363c0.025,0.004,0.055,0.01,0.081,0.015l-0.851,0.851C13.574,15.233,11.993,14.477,11.993,12.342z
	 M18.065,15.349l-0.773,0.773c1.256,0.465,1.756,1.145,1.711,2.177C18.949,19.531,18.322,21,15.637,21
	c-0.931,0-1.725-0.272-2.404-0.819l-0.712,0.712c0.714,0.603,1.542,0.96,2.479,1.07V24h1v-2.016c3.458-0.162,3.956-2.58,4.002-3.642
	C20.071,16.724,19.133,15.847,18.065,15.349z M16,4C9.373,4,4,9.373,4,16s5.373,12,12,12s12-5.373,12-12S22.627,4,16,4z M29,16
	c0,7.18-5.82,13-13,13S3,23.18,3,16S8.82,3,16,3S29,8.82,29,16z"/>
</svg>
