<?xml version="1.0" encoding="utf-8"?>
<!-- Generator: Adobe Illustrator 15.0.0, SVG Export Plug-In . SVG Version: 6.00 Build 0)  -->
<!DOCTYPE svg PUBLIC "-//W3C//DTD SVG 1.1//EN" "http://www.w3.org/Graphics/SVG/1.1/DTD/svg11.dtd">
<svg version="1.1" id="Layer_1" xmlns="http://www.w3.org/2000/svg" xmlns:xlink="http://www.w3.org/1999/xlink" x="0px" y="0px"
	 width="32px" height="32px" viewBox="0 0 32 32" enable-background="new 0 0 32 32" xml:space="preserve">
<path fill-rule="evenodd" clip-rule="evenodd" fill="#8BC72A" d="M16,24c2.761,0,5,0.672,5,1.5S18.761,27,16,27
	c-2.761,0-5-0.672-5-1.5S13.239,24,16,24z"/>
<g>
	<g>
		<path fill="#413A4D" d="M23.789,21h-5.902c1.073-3.379,2.606-5.022,3.54-6.698c0.179-0.32,0.333-0.599,0.458-0.837
			C22.239,12.791,23,11.006,23,9c0-3.86-3.092-7-6.969-7S9,5.14,9,9c0,2.173,0.853,3.967,1.114,4.465
			c0.125,0.238,0.28,0.517,0.459,0.837c0.934,1.676,2.466,3.319,3.539,6.698h-5.9L2.5,30h27L23.789,21z M12.938,9
			c0-1.657,1.357-3,3.031-3S19,7.343,19,9s-1.357,3-3.031,3S12.938,10.657,12.938,9z M8.761,22h5.641
			c0.242,0.92,0.45,1.954,0.607,3.133C15.075,25.629,15.499,26,16,26s0.925-0.371,0.991-0.867c0.157-1.179,0.365-2.213,0.606-3.133
			h5.641l4.443,7H4.319L8.761,22z"/>
	</g>
</g>
<path fill-rule="evenodd" clip-rule="evenodd" fill="#E66910" d="M16,3c3.331,0,6,2.687,6,6c0,1.537-0.531,3.048-1.031,4
	c-1,1.905-4,4.5-5,12c-1-7.5-4-10.095-5-12C10.469,12.048,10,10.537,10,9C10,5.687,12.669,3,16,3z M15.969,5C18.195,5,20,6.791,20,9
	s-1.805,4-4.031,4s-4.031-1.791-4.031-4S13.742,5,15.969,5z"/>
</svg>
