<?xml version="1.0" encoding="utf-8"?>
<!-- Generator: Adobe Illustrator 15.0.0, SVG Export Plug-In . SVG Version: 6.00 Build 0)  -->
<!DOCTYPE svg PUBLIC "-//W3C//DTD SVG 1.1//EN" "http://www.w3.org/Graphics/SVG/1.1/DTD/svg11.dtd">
<svg version="1.1" id="Layer_1" xmlns="http://www.w3.org/2000/svg" xmlns:xlink="http://www.w3.org/1999/xlink" x="0px" y="0px"
	 width="32px" height="32px" viewBox="0 0 32 32" enable-background="new 0 0 32 32" xml:space="preserve">
<circle fill-rule="evenodd" clip-rule="evenodd" fill="#34B5C7" cx="15.5" cy="21.5" r="7.5"/>
<g>
	<g>
		<path fill-rule="evenodd" clip-rule="evenodd" fill="#413A4D" d="M26.619,15.107c-0.163-0.042-0.384-0.093-0.637-0.149
			C25.984,14.898,26,14.842,26,14.781C26,12.145,23.855,10,21.219,10c-0.217,0-0.424,0.036-0.633,0.064
			C19.571,7.122,16.782,5,13.5,5C9.364,5,6,8.364,6,12.5c0,0.238,0.014,0.472,0.036,0.704C3.713,13.848,2,15.975,2,18.5
			C2,21.533,4.467,24,7.5,24h17.981C27.973,24,30,21.973,30,19.481C30,17.422,28.609,15.624,26.619,15.107z M25.481,23H7.5
			C5.015,23,3,20.985,3,18.5c0-2.379,1.852-4.306,4.189-4.469C7.07,13.54,7,13.028,7,12.5C7,8.91,9.91,6,13.5,6
			c3.164,0,5.798,2.262,6.378,5.256C20.296,11.097,20.745,11,21.219,11C23.307,11,25,12.693,25,14.781
			c0,0.335-0.058,0.653-0.139,0.962c0.629,0.128,1.183,0.248,1.506,0.332C27.882,16.468,29,17.844,29,19.481
			C29,21.425,27.425,23,25.481,23z"/>
	</g>
</g>
</svg>
