<?xml version="1.0" encoding="utf-8"?>
<!-- Generator: Adobe Illustrator 15.0.0, SVG Export Plug-In . SVG Version: 6.00 Build 0)  -->
<!DOCTYPE svg PUBLIC "-//W3C//DTD SVG 1.1//EN" "http://www.w3.org/Graphics/SVG/1.1/DTD/svg11.dtd">
<svg version="1.1" id="Layer_1" xmlns="http://www.w3.org/2000/svg" xmlns:xlink="http://www.w3.org/1999/xlink" x="0px" y="0px"
	 width="32px" height="32px" viewBox="0 0 32 32" enable-background="new 0 0 32 32" xml:space="preserve">
<polygon display="none" fill-rule="evenodd" clip-rule="evenodd" fill="#34B5C7" points="54.063,0 50.563,0 50.563,7 41.563,7 
	41.563,0 34.563,0 34.563,22 38.563,22 38.563,13 52.563,13 52.563,22 56.563,22 56.563,2.5 "/>
<path fill="#8BC72A" d="M23,16.5c0,4.145-3.355,7.5-7.5,7.5C11.355,24,8,20.645,8,16.5C8,12.355,11.355,9,15.5,9
	C19.645,9,23,12.355,23,16.5z"/>
<g>
	<g>
		<path fill="#413A4D" d="M20.157,14.563l-0.708-0.707L16,17.305V2h-1v15.305l-3.449-3.449l-0.707,0.707L15.5,19.22L20.157,14.563z
			 M25,17h-5l-1,1h6c1.104,0,2,0.896,2,2v4c0,1.104-0.896,2-2,2H6c-1.104,0-2-0.896-2-2v-4c0-1.104,0.896-2,2-2h6l-1-1H6
			c-1.656,0-3,1.343-3,3v4c0,1.657,1.344,3,3,3h19c1.657,0,3-1.343,3-3v-4C28,18.343,26.657,17,25,17z M25,22c0-1.104-0.896-2-2-2
			s-2,0.896-2,2s0.896,2,2,2S25,23.104,25,22z M22,22c0-0.553,0.447-1,1-1s1,0.447,1,1s-0.447,1-1,1S22,22.553,22,22z"/>
	</g>
</g>
</svg>
