<?xml version="1.0" encoding="utf-8"?>
<!-- Generator: Adobe Illustrator 15.0.0, SVG Export Plug-In . SVG Version: 6.00 Build 0)  -->
<!DOCTYPE svg PUBLIC "-//W3C//DTD SVG 1.1//EN" "http://www.w3.org/Graphics/SVG/1.1/DTD/svg11.dtd">
<svg version="1.1" id="Layer_1" xmlns="http://www.w3.org/2000/svg" xmlns:xlink="http://www.w3.org/1999/xlink" x="0px" y="0px"
	 width="32px" height="32px" viewBox="0 0 32 32" enable-background="new 0 0 32 32" xml:space="preserve">
<path fill-rule="evenodd" clip-rule="evenodd" fill="#34B5C7" d="M8,7v18c0,0.553,0.448,1,1,1h12c0.553,0,1-0.447,1-1V7
	c0-0.553-0.447-1-1-1H9C8.448,6,8,6.447,8,7z"/>
<path fill-rule="evenodd" clip-rule="evenodd" fill="#413A4D" d="M7,27V5c0-1.104,0.896-2,2-2h12c1.104,0,2,0.896,2,2v22
	c0,1.104-0.896,2-2,2H9C7.896,29,7,28.104,7,27z M6,27V5c0-1.656,1.343-3,3-3h12c1.656,0,3,1.344,3,3v22c0,1.657-1.344,3-3,3H9
	C7.343,30,6,28.657,6,27z M16,4.5C16,4.224,15.776,4,15.5,4h-1C14.224,4,14,4.224,14,4.5l0,0C14,4.776,14.224,5,14.5,5h1
	C15.776,5,16,4.776,16,4.5L16,4.5z M17,27.5c0-0.276-0.224-0.5-0.5-0.5h-3c-0.276,0-0.5,0.224-0.5,0.5l0,0
	c0,0.276,0.224,0.5,0.5,0.5h3C16.776,28,17,27.776,17,27.5L17,27.5z"/>
<path fill-rule="evenodd" clip-rule="evenodd" fill="#E66910" d="M29,16.5c0,4.694-3.806,8.5-8.5,8.5c-3.337,0-8.561,0-8.5,0
	s0-7.143,0-8.5c0-4.695,3.805-8.5,8.5-8.5C25.194,8,29,11.805,29,16.5z"/>
<g>
	<g>
		<path fill-rule="evenodd" clip-rule="evenodd" fill="#413A4D" d="M20.646,15.947C19.577,15.495,19,15.194,19,14.267
			C19,13.356,19.671,13,20.362,13c1.307,0,1.734,0.93,1.759,0.989l0.439-0.173l-0.021,0.009L23,13.643
			c-0.023-0.059-0.524-1.29-2-1.579V10h-1v2.032c-1.164,0.155-2,1.042-2,2.234c0,1.603,1.277,2.131,2.28,2.555
			c1.085,0.459,1.72,0.792,1.72,1.814C22,18.968,21.909,20,20.356,20c-1.382,0-1.6-0.976-1.619-1.087l-0.932,0.143
			C17.9,19.68,18.492,20.807,20,20.968V23h1v-2.057c1.362-0.247,2-1.281,2-2.308C23,16.931,21.683,16.386,20.646,15.947z
			 M22.123,13.993l0.416-0.168l-0.418,0.165C22.121,13.989,22.123,13.992,22.123,13.993z"/>
	</g>
</g>
</svg>
