<?xml version="1.0" encoding="utf-8"?>
<!-- Generator: Adobe Illustrator 15.0.0, SVG Export Plug-In . SVG Version: 6.00 Build 0)  -->
<!DOCTYPE svg PUBLIC "-//W3C//DTD SVG 1.1//EN" "http://www.w3.org/Graphics/SVG/1.1/DTD/svg11.dtd">
<svg version="1.1" id="Layer_1" xmlns="http://www.w3.org/2000/svg" xmlns:xlink="http://www.w3.org/1999/xlink" x="0px" y="0px"
	 width="32px" height="32px" viewBox="0 0 32 32" enable-background="new 0 0 32 32" xml:space="preserve">
<polygon fill-rule="evenodd" clip-rule="evenodd" fill="#8BC72A" points="3.007,11.315 24.377,6.083 25.73,11.613 6,11.563 
	4.688,12.563 4.485,17.348 "/>
<polygon fill-rule="evenodd" clip-rule="evenodd" fill="#34B5C7" points="22.688,13 6,13 6,24 25.379,24 "/>
<g>
	<g>
		<path fill-rule="evenodd" clip-rule="evenodd" fill="#413A4D" d="M18,22h9v-1h-9V22z M18,16h9v-1h-9V16z M18,19h9v-1h-9V19z
			 M28,11h-0.36l-1.32-5.393C26.057,4.534,24.974,3.877,23.9,4.14L2.532,9.372c-1.073,0.263-1.729,1.346-1.467,2.418l2.616,10.684
			C3.744,22.73,3.855,22.961,4,23.162V24c0,1.104,0.896,2,2,2h22c1.104,0,2-0.896,2-2V13C30,11.896,29.104,11,28,11z M4,13v6.573
			l-1.964-8.021c-0.131-0.537,0.197-1.078,0.734-1.209l21.369-5.232c0.537-0.131,1.078,0.197,1.209,0.734L26.61,11H6
			C4.896,11,4,11.896,4,13z M29,24c0,0.553-0.447,1-1,1H6c-0.552,0-1-0.447-1-1V13c0-0.552,0.448-1,1-1h22c0.553,0,1,0.448,1,1V24z
			 M12.512,17L11.5,13.96L10.488,17H7.611l2.234,1.727l-0.839,2.872l2.493-1.593l2.493,1.593l-0.84-2.872L15.389,17H12.512z"/>
	</g>
</g>
</svg>
