<?xml version="1.0" encoding="utf-8"?>
<!-- Generator: Adobe Illustrator 15.0.0, SVG Export Plug-In . SVG Version: 6.00 Build 0)  -->
<!DOCTYPE svg PUBLIC "-//W3C//DTD SVG 1.1//EN" "http://www.w3.org/Graphics/SVG/1.1/DTD/svg11.dtd">
<svg version="1.1" id="Layer_1" xmlns="http://www.w3.org/2000/svg" xmlns:xlink="http://www.w3.org/1999/xlink" x="0px" y="0px"
	 width="32px" height="32px" viewBox="0 0 32 32" enable-background="new 0 0 32 32" xml:space="preserve">
<g>
	<g>
		<path fill="#E66910" d="M9.5,11C9.225,11,9,11.225,9,11.5V22c0,0.277,0.225,0.5,0.5,0.5L10,22V11.5C10,11.225,9.775,11,9.5,11z
			 M22.379,19.986c-0.169-0.043-0.305-0.17-0.356-0.336s-0.014-0.348,0.101-0.479c2.845-3.251,4.358-11.759,4.768-14.062L10,22h10.5
			c0.276,0,0.5,0.225,0.5,0.5c0,0.277-0.224,0.5-0.5,0.5H10c-0.178,0-0.327-0.098-0.416-0.238C9.947,23.854,11.571,28,16.5,28
			c4.863,0,10.545-3.9,12.184-5.414C27.659,21.984,25.275,20.709,22.379,19.986z"/>
	</g>
</g>
<g>
	<g>
		<path fill-rule="evenodd" clip-rule="evenodd" fill="#413A4D" d="M29.777,22.084c-0.118-0.078-2.755-1.818-6.409-2.867
			c3.202-4.355,4.566-14.248,4.626-14.642c0.023-0.156-0.028-0.315-0.141-0.428c-0.111-0.111-0.27-0.165-0.428-0.141
			C27.031,4.065,17.139,5.43,12.785,8.633c-1.05-3.655-2.791-6.293-2.869-6.41C9.833,2.098,9.698,2.018,9.549,2.002
			c-0.15-0.016-0.297,0.039-0.402,0.145C8.854,2.439,3,9.364,3,15.5c0,4.897,3.967,6.609,5.668,7.119l-4.527,4.527
			c-0.195,0.195-0.195,0.512,0,0.707s0.512,0.195,0.707,0l4.53-4.53C9.884,25.018,11.594,29,16.5,29
			c6.137,0,13.062-5.854,13.354-6.146c0.105-0.105,0.158-0.254,0.144-0.402S29.901,22.168,29.777,22.084z M16.5,28
			c-5.574,0-6.424-5.809-6.5-6c-0.191-0.078-6-0.926-6-6.5C4,10.637,7.902,4.955,9.415,3.317c0.601,1.021,1.874,3.402,2.601,6.305
			c0.041,0.169,0.169,0.305,0.335,0.355c0.166,0.053,0.348,0.014,0.479-0.1C16.078,7.034,24.587,5.52,26.891,5.11
			c-0.409,2.303-1.923,10.811-4.768,14.062c-0.114,0.131-0.152,0.313-0.101,0.479s0.188,0.293,0.356,0.336
			c2.896,0.723,5.28,1.998,6.305,2.6C27.045,24.1,21.363,28,16.5,28z"/>
	</g>
</g>
</svg>
