<?xml version="1.0" encoding="utf-8"?>
<!-- Generator: Adobe Illustrator 15.0.0, SVG Export Plug-In . SVG Version: 6.00 Build 0)  -->
<!DOCTYPE svg PUBLIC "-//W3C//DTD SVG 1.1//EN" "http://www.w3.org/Graphics/SVG/1.1/DTD/svg11.dtd">
<svg version="1.1" id="Layer_1" xmlns="http://www.w3.org/2000/svg" xmlns:xlink="http://www.w3.org/1999/xlink" x="0px" y="0px"
	 width="32px" height="32px" viewBox="0 0 32 32" enable-background="new 0 0 32 32" xml:space="preserve">
<g>
	<g>
		<path fill-rule="evenodd" clip-rule="evenodd" fill="#34B5C7" d="M10,21h4v3h1v-3h4v3h1v-3h4v3h1v-3h3v-1h-3v-4h3v-1h-3v-4h3v-1
			h-3V8H4v16h6V21z M20,11h4v4h-4V11z M20,16h4v4h-4V16z M15,16h4v4h-4V16z"/>
	</g>
</g>
<g>
	<g>
		<path fill-rule="evenodd" clip-rule="evenodd" fill="#413A4D" d="M17,23h10v-1H17V23z M17,18h10v-1H17V18z M17,13h10v-1H17V13z
			 M28,6H4C2.896,6,2,6.896,2,8v16c0,1.104,0.896,2,2,2h24c1.104,0,2-0.896,2-2V8C30,6.896,29.104,6,28,6z M29,24
			c0,0.553-0.447,1-1,1H4c-0.552,0-1-0.447-1-1V8c0-0.552,0.448-1,1-1h24c0.553,0,1,0.448,1,1V24z M10.512,15L9.5,11.96L8.488,15
			H5.611l2.234,1.726l-0.839,2.873L9.5,18.006l2.493,1.593l-0.84-2.873L13.389,15H10.512z"/>
	</g>
</g>
</svg>
