<?xml version="1.0" encoding="utf-8"?>
<!-- Generator: Adobe Illustrator 15.0.0, SVG Export Plug-In . SVG Version: 6.00 Build 0)  -->
<!DOCTYPE svg PUBLIC "-//W3C//DTD SVG 1.1//EN" "http://www.w3.org/Graphics/SVG/1.1/DTD/svg11.dtd">
<svg version="1.1" id="Layer_1" xmlns="http://www.w3.org/2000/svg" xmlns:xlink="http://www.w3.org/1999/xlink" x="0px" y="0px"
	 width="32px" height="32px" viewBox="0 0 32 32" enable-background="new 0 0 32 32" xml:space="preserve">
<path fill-rule="evenodd" clip-rule="evenodd" fill="#E66910" d="M15.992,12c-0.033-0.732-0.199-1-0.992-1v-1c0.952,0,1-0.386,1-1.5
	C16,7.565,16,6,18,6v1c-0.951,0-1,0.386-1,1.5c0,0.601,0,1.461-0.53,2c0.395,0.402,0.496,0.982,0.521,1.5L15.992,12z M22,15
	c2,0,2-1.565,2-2.5c0-1.114,0.049-1.5,1-1.5v-1c-0.951,0-1-0.386-1-1.5C24,7.565,24,6,22,6v1c0.951,0,1,0.386,1,1.5
	c0,0.601,0,1.461,0.53,2C23,11.039,23,11.899,23,12.5c0,1.114-0.049,1.5-1,1.5V15z"/>
<g>
	<g>
		<path fill="#413A4D" d="M26.5,1h-13C12.671,1,12,1.671,12,2.5V11H5.5C4.671,11,4,11.671,4,12.5v17C4,30.328,4.671,31,5.5,31h13
			c0.828,0,1.5-0.672,1.5-1.5V21h6.5c0.828,0,1.5-0.672,1.5-1.5v-17C28,1.671,27.328,1,26.5,1z M19,29.5c0,0.276-0.224,0.5-0.5,0.5
			h-13C5.224,30,5,29.776,5,29.5v-17C5,12.224,5.224,12,5.5,12h13c0.276,0,0.5,0.224,0.5,0.5V29.5z M27,19.5
			c0,0.276-0.224,0.5-0.5,0.5H20v-7.5c0-0.829-0.672-1.5-1.5-1.5H13V2.5C13,2.224,13.224,2,13.5,2h13C26.776,2,27,2.224,27,2.5V19.5
			z"/>
	</g>
</g>
<path fill="#8BC72A" d="M9.6,25.3L6.375,21L9.6,16.7l0.8,0.6L7.625,21l2.775,3.7L9.6,25.3z M17.625,21L14.4,16.7l-0.8,0.6l2.775,3.7
	L13.6,24.7l0.8,0.6L17.625,21z"/>
</svg>
