<?xml version="1.0" encoding="utf-8"?>
<!-- Generator: Adobe Illustrator 15.0.0, SVG Export Plug-In . SVG Version: 6.00 Build 0)  -->
<!DOCTYPE svg PUBLIC "-//W3C//DTD SVG 1.1//EN" "http://www.w3.org/Graphics/SVG/1.1/DTD/svg11.dtd">
<svg version="1.1" id="Layer_1" xmlns="http://www.w3.org/2000/svg" xmlns:xlink="http://www.w3.org/1999/xlink" x="0px" y="0px"
	 width="32px" height="32px" viewBox="0 0 32 32" enable-background="new 0 0 32 32" xml:space="preserve">
<g>
	<g>
		<path fill-rule="evenodd" clip-rule="evenodd" fill="#8BC72A" d="M17.5,8.584C18.393,8.064,19,7.107,19,6c0-1.657-1.344-3-3-3
			c-0.927,0-1.747,0.43-2.297,1.092C13.477,4.037,13.243,4,13,4c-1.657,0-3,1.343-3,3c0,1.107,0.607,2.064,1.5,2.584V7
			c0-0.828,0.672-1.5,1.5-1.5s1.5,0.672,1.5,1.5V6c0-0.828,0.672-1.5,1.5-1.5s1.5,0.672,1.5,1.5V8.584z M16,1
			c-1.12,0-2.143,0.381-2.976,1.002C13.016,2.002,13.008,2,13,2c-2.762,0-5,2.238-5,5c0,2.235,1.477,4.105,3.5,4.746v-1.07
			C10.03,10.063,9,8.649,9,7c0-2.209,1.847-4,4.125-4c0.078,0,0.15,0.018,0.228,0.022C14.059,2.394,14.979,2,16,2
			c2.209,0,4,1.791,4,4c0,1.678-1.035,3.109-2.5,3.703v1.042C19.523,10.105,21,8.235,21,6C21,3.238,18.762,1,16,1z"/>
	</g>
</g>
<g>
	<g>
		<path fill="#413A4D" d="M24.355,17.451c-0.117-0.609-0.243-1.261-0.369-2.015c-0.168-1.008-0.881-1.763-1.818-1.922
			c-0.469-0.08-0.914-0.005-1.21,0.074C20.768,12.683,19.963,12,19,12c-0.363,0-0.706,0.103-1,0.272V6c0-1.103-0.894-2-1.996-2
			c-0.896,0-1.614,0.567-1.883,1.339C13.805,5.126,13.422,5,13,5c-1.103,0-2,0.897-2,2c0,2,0,10.813,0,10.813
			s-0.738-1.92-2.69-3.449c-0.857-0.671-2.106-0.516-2.844,0.354c-0.031,0.036-0.06,0.073-0.087,0.108
			c-0.558,0.752-0.446,1.799,0.192,2.622c2.681,3.454,1.047,7.113,5.379,9.887c3.107,1.99,3.161,2.59,3.227,2.612L14.334,30h8.08
			l0.293-0.293C22.801,29.613,25,27.369,25,23.5C25,20.795,24.701,19.245,24.355,17.451z M22,29h-7.5c0,0,0.008-0.512-3-2.5
			c-3.688-2.438-2.469-6-5.235-9.693c-0.319-0.426-0.421-1.002-0.039-1.453s0.994-0.495,1.448-0.214C9.063,16,10.344,18,11.002,21
			C11.109,21.488,12,21.5,12,21V7c0-0.552,0.448-1,1-1s1,0.448,1,1v8.625c0,0.5,1,0.5,1,0V6c0-0.552,0.439-1,0.987-1S17,5.448,17,6
			v9.625c0,0.5,1,0.5,1,0V14c0-0.552,0.448-1,1-1c0.553,0,1,0.448,1,1v2.625c0,0.5,1,0.5,1,0v-2c0,0,0.508-0.209,1-0.125
			c0.545,0.093,0.91,0.556,1,1.101c0.5,3,1,4.399,1,7.899S22,29,22,29z"/>
	</g>
</g>
<rect x="12" y="28" fill="#E66910" width="12" height="2"/>
</svg>
