<?xml version="1.0" encoding="utf-8"?>
<!-- Generator: Adobe Illustrator 15.0.0, SVG Export Plug-In . SVG Version: 6.00 Build 0)  -->
<!DOCTYPE svg PUBLIC "-//W3C//DTD SVG 1.1//EN" "http://www.w3.org/Graphics/SVG/1.1/DTD/svg11.dtd">
<svg version="1.1" id="Layer_1" xmlns="http://www.w3.org/2000/svg" xmlns:xlink="http://www.w3.org/1999/xlink" x="0px" y="0px"
	 width="32px" height="32px" viewBox="0 0 32 32" enable-background="new 0 0 32 32" xml:space="preserve">
<g>
	<g>
		<path fill="#8BC72A" d="M13,15h-1.899C11.035,15.323,11,15.657,11,16c0,1.381,0.56,2.631,1.464,3.535h0
			c0.455,0.454,0.979,0.792,1.535,1.035V16C14,15.448,13.552,15,13,15z M10,16c0-0.341,0.035-0.674,0.09-1H6c-0.552,0-1,0.448-1,1
			v11c0,0.553,0.448,1,1,1h7c0.552,0,1-0.447,1-1v-5.364c-0.817-0.288-1.589-0.74-2.242-1.394C10.672,19.157,10,17.657,10,16z"/>
	</g>
</g>
<g>
	<g>
		<path fill-rule="evenodd" clip-rule="evenodd" fill="#34B5C7" d="M28,8H4C3.448,8,3,8.448,3,9v14c0,0.553,0.448,1,1,1v-8
			c0-1.104,0.896-2,2-2h4.349c0.825-2.329,3.04-4,5.651-4c3.313,0,6,2.687,6,6c0,1.539-0.585,2.938-1.538,4.001L23,20v1h-4v-4h1
			v1.973c0.62-0.833,1-1.854,1-2.973c0-2.761-2.238-5-5-5c-2.049,0-3.806,1.236-4.578,3H13c1.104,0,2,0.896,2,2v4.894
			c0.33,0.067,0.665,0.105,1.001,0.105L16,21.998c-0.335,0-0.669-0.04-1-0.096V24h13c0.553,0,1-0.447,1-1V9C29,8.448,28.553,8,28,8z
			 M20,20.001L20,20.001L20,20.001L20,20.001z"/>
	</g>
</g>
<g>
	<g>
		<path fill-rule="evenodd" clip-rule="evenodd" fill="#413A4D" d="M28,6H4C2.343,6,1,7.343,1,9v14c0,1.304,0.837,2.402,2,2.816V27
			c0,1.656,1.343,3,3,3h7c1.657,0,3-1.344,3-3v-1h12c1.656,0,3-1.344,3-3V9C31,7.343,29.656,6,28,6z M15,27c0,1.104-0.896,2-2,2H6
			c-1.104,0-2-0.896-2-2V16c0-1.104,0.896-2,2-2h7c1.104,0,2,0.896,2,2V27z M30,23c0,1.104-0.896,2-2,2H16v-9c0-1.657-1.343-3-3-3H6
			c-1.657,0-3,1.343-3,3v8.723C2.405,24.376,2,23.738,2,23V9c0-1.104,0.896-2,2-2h24c1.104,0,2,0.896,2,2V23z"/>
	</g>
</g>
</svg>
