<?xml version="1.0" encoding="utf-8"?>
<!-- Generator: Adobe Illustrator 15.0.0, SVG Export Plug-In . SVG Version: 6.00 Build 0)  -->
<!DOCTYPE svg PUBLIC "-//W3C//DTD SVG 1.1//EN" "http://www.w3.org/Graphics/SVG/1.1/DTD/svg11.dtd">
<svg version="1.1" id="Layer_1" xmlns="http://www.w3.org/2000/svg" xmlns:xlink="http://www.w3.org/1999/xlink" x="0px" y="0px"
	 width="32px" height="32px" viewBox="0 0 32 32" enable-background="new 0 0 32 32" xml:space="preserve">
<g>
	<g>
		<path fill-rule="evenodd" clip-rule="evenodd" fill="#34B5C7" d="M12,3C6.477,3,2,6.806,2,11.5c0,2.376,1.15,4.523,3,6.065V23
			l3.259-3.621c0.607,0.209,1.244,0.366,1.903,0.472C10.061,19.412,10,18.962,10,18.5c0-1.691,0.717-3.246,1.913-4.5H9.772l-0.6,2
			H8.128l3-10h0.744l1.95,6.501C15.406,11.563,17.367,11,19.5,11c0.861,0,1.692,0.099,2.486,0.269C21.841,6.682,17.431,3,12,3z
			 M10.072,13h2.856L11.5,8.24L10.072,13z"/>
	</g>
</g>
<g>
	<g>
		<path fill-rule="evenodd" clip-rule="evenodd" fill="#E66910" d="M22.787,18.297c0.071-0.236,0.136-0.458,0.193-0.658
			l-0.961-0.277c-0.063,0.218-0.132,0.457-0.209,0.709C21.482,18.023,21.132,18,20.76,18c-0.592,0-1.12,0.063-1.616,0.156
			c-0.05-0.648-0.085-1.401-0.108-2.268c1.852-0.13,3.355-0.397,4.653-0.926l-0.377-0.926c-1.179,0.479-2.573,0.726-4.297,0.85
			C19.006,14.302,19,13.686,19,13h-1c0,0.704,0.006,1.339,0.015,1.943C17.1,14.983,16.107,15,15,15v1
			c1.109,0,2.109-0.017,3.035-0.057c0.025,0.932,0.063,1.749,0.121,2.452C15.999,19.12,15,20.703,15,21.917
			C15,23.183,15.965,24,17.459,24c0.893,0,1.642-0.253,2.273-0.665c0.106,0.13,0.217,0.259,0.336,0.387l0.734-0.68
			c-0.105-0.113-0.203-0.227-0.299-0.342c0.95-0.954,1.562-2.284,1.978-3.464C23.336,19.521,24,20.108,24,21.25
			c0,0.965-0.897,1.75-2,1.75v1c1.654,0,3-1.233,3-2.75C25,19.805,24.201,18.773,22.787,18.297z M17.459,23
			C16.914,23,16,22.859,16,21.917c0-0.841,0.731-1.908,2.266-2.489c0.179,1.4,0.463,2.322,0.886,3.067
			C18.667,22.802,18.115,23,17.459,23z M19.933,21.842c-0.317-0.618-0.544-1.424-0.694-2.687C19.699,19.065,20.193,19,20.76,19
			c0.24,0,0.487,0.011,0.733,0.035C21.137,20.026,20.642,21.07,19.933,21.842z"/>
	</g>
</g>
<g>
	<g>
		<path fill-rule="evenodd" clip-rule="evenodd" fill="#413A4D" d="M21.876,10.227C21.151,6.138,17.012,3,12,3
			C6.477,3,2,6.806,2,11.5c0,2.376,1.15,4.523,3,6.065V23l3.259-3.621c0.275,0.095,0.558,0.178,0.845,0.252
			C9.789,23.789,14.176,27,19.5,27c0.17,0,0.334-0.014,0.502-0.021L24,31.422v-5.251c3.544-1.365,6-4.282,6-7.671
			C30,14.468,26.528,11.1,21.876,10.227z M8.994,18.563l0.009-0.01c0,0.004,0,0.008,0,0.013C9.001,18.564,8.998,18.563,8.994,18.563
			z M9.038,17.897l-0.683-0.152L6,20.361v-3.285c-1.836-1.373-3-3.358-3-5.576C3,7.358,7.029,4,12,4
			c4.385,0,8.034,2.615,8.833,6.076C20.396,10.031,19.953,10,19.5,10C13.953,10,9.421,13.485,9.038,17.897z M22.987,25.472
			l-0.001,3.163l-2.466-2.68C20.186,25.983,19.845,26,19.5,26c-5.247,0-9.5-3.357-9.5-7.5c0-4.142,4.253-7.5,9.5-7.5
			c5.246,0,9.5,3.358,9.5,7.5C29,21.669,26.506,24.373,22.987,25.472z"/>
	</g>
</g>
</svg>
