<?xml version="1.0" encoding="utf-8"?>
<!-- Generator: Adobe Illustrator 15.0.0, SVG Export Plug-In . SVG Version: 6.00 Build 0)  -->
<!DOCTYPE svg PUBLIC "-//W3C//DTD SVG 1.1//EN" "http://www.w3.org/Graphics/SVG/1.1/DTD/svg11.dtd">
<svg version="1.1" id="Layer_1" xmlns="http://www.w3.org/2000/svg" xmlns:xlink="http://www.w3.org/1999/xlink" x="0px" y="0px"
	 width="32px" height="32px" viewBox="0 0 32 32" enable-background="new 0 0 32 32" xml:space="preserve">
<g>
	<g>
		<path fill-rule="evenodd" clip-rule="evenodd" fill="#8BC72A" d="M6.332,18.938c0.475-0.599,1.967-1.196,3.875-2.095l0.051-0.28
			c-0.632-0.315-1.129-0.739-1.39-1.075C8.341,14.805,8,13.029,8,10.963C8,8.185,9.196,7,12,7c2.455,0,3.677,0.909,3.943,3H20V5H4
			v15h1.871C6.019,19.525,6.176,19.137,6.332,18.938z"/>
	</g>
</g>
<g>
	<g>
		<path fill-rule="evenodd" clip-rule="evenodd" fill="#34B5C7" d="M12,12v15h1.871c0.148-0.475,0.305-0.863,0.461-1.063
			c0.475-0.599,1.967-1.196,3.875-2.095l0.051-0.28c-0.632-0.314-1.129-0.738-1.39-1.075C16.341,21.805,16,20.029,16,17.963
			C16,15.185,17.196,14,20,14s4,1.185,4,3.963c0,2.064-0.347,3.846-0.882,4.539c-0.257,0.334-0.749,0.753-1.376,1.064l0.051,0.276
			c1.908,0.898,3.402,1.496,3.871,2.095c0.158,0.199,0.315,0.588,0.465,1.063H28V12H12z"/>
	</g>
</g>
<g>
	<g>
		<path fill-rule="evenodd" clip-rule="evenodd" fill="#413A4D" d="M28,10h-6V5c0-1.104-0.896-2-2-2H4C2.896,3,2,3.896,2,5v15
			c0,1.104,0.896,2,2,2h6v5c0,1.104,0.896,2,2,2h16c1.104,0,2-0.896,2-2V12C30,10.896,29.104,10,28,10z M10,12v9H4
			c-0.552,0-1-0.447-1-1V5c0-0.552,0.448-1,1-1h16c0.553,0,1,0.448,1,1v5h-9C10.896,10,10,10.896,10,12z M29,27c0,0.553-0.447,1-1,1
			H12c-0.552,0-1-0.447-1-1V12c0-0.552,0.448-1,1-1h16c0.553,0,1,0.448,1,1V27z"/>
	</g>
</g>
</svg>
