<?xml version="1.0" encoding="utf-8"?>
<!-- Generator: Adobe Illustrator 15.0.0, SVG Export Plug-In . SVG Version: 6.00 Build 0)  -->
<!DOCTYPE svg PUBLIC "-//W3C//DTD SVG 1.1//EN" "http://www.w3.org/Graphics/SVG/1.1/DTD/svg11.dtd">
<svg version="1.1" id="Layer_1" xmlns="http://www.w3.org/2000/svg" xmlns:xlink="http://www.w3.org/1999/xlink" x="0px" y="0px"
	 width="32px" height="32px" viewBox="0 0 32 32" enable-background="new 0 0 32 32" xml:space="preserve">
<path fill="#34B5C7" d="M28,23H13l-4.541,4.542L8.5,23H4V7h24V23z M16,9c-3.313,0-6,2.687-6,6c0,3.314,2.687,6,6,6
	c3.314,0,6-2.686,6-6C22,11.687,19.314,9,16,9z"/>
<g>
	<g>
		<path fill="#413A4D" d="M27,6H5C3.896,6,3,6.896,3,8v14c0,1.104,0.896,2,2,2h3v4.749L12.749,24H27c1.104,0,2-0.896,2-2V8
			C29,6.896,28.104,6,27,6z M28,22c0,0.552-0.447,1-1,1H12.334L9,26.335V23H5c-0.552,0-1-0.448-1-1V8c0-0.552,0.448-1,1-1h22
			c0.553,0,1,0.448,1,1V22z"/>
	</g>
</g>
<path fill="#413A4D" d="M16,18c0,0.553-0.448,1-1,1l0,0c-0.552,0-1-0.447-1-1l0,0c0-0.553,0.448-1,1-1l0,0
	C15.552,17,16,17.447,16,18L16,18z M18.203,11.415c0.105-0.256-0.018-0.548-0.273-0.653l0,0c-0.256-0.105-0.547,0.017-0.652,0.272
	l-1.573,3.825c-0.104,0.256,0.018,0.548,0.272,0.652l0,0c0.256,0.105,0.548-0.017,0.653-0.271L18.203,11.415z"/>
</svg>
