<?xml version="1.0" encoding="utf-8"?>
<!-- Generator: Adobe Illustrator 15.0.0, SVG Export Plug-In . SVG Version: 6.00 Build 0)  -->
<!DOCTYPE svg PUBLIC "-//W3C//DTD SVG 1.1//EN" "http://www.w3.org/Graphics/SVG/1.1/DTD/svg11.dtd">
<svg version="1.1" id="Layer_1" xmlns="http://www.w3.org/2000/svg" xmlns:xlink="http://www.w3.org/1999/xlink" x="0px" y="0px"
	 width="32px" height="32px" viewBox="0 0 32 32" enable-background="new 0 0 32 32" xml:space="preserve">
<g>
	<g>
		<path fill-rule="evenodd" clip-rule="evenodd" fill="#34B5C7" d="M13.5,10C9.91,10,7,12.91,7,16.5
			c0,0.526,0.069,1.035,0.188,1.525c-1.882,0.131-3.45,1.404-3.988,3.144C3.07,21.59,5.015,24,7.5,24h1.207L19.23,13.477
			C18.141,11.416,15.994,10,13.5,10z M28.657,21.963c-0.443-0.925-1.278-1.625-2.29-1.888c-0.323-0.083-0.877-0.203-1.506-0.331
			C24.942,19.435,25,19.116,25,18.781C25,16.693,23.307,15,21.219,15c-0.215,0-0.424,0.025-0.629,0.063L12.291,24h13.19
			C27.425,24,28.877,22.423,28.657,21.963z"/>
	</g>
</g>
<g>
	<g>
		<path fill-rule="evenodd" clip-rule="evenodd" fill="#413A4D" d="M23.688,7.605L8.292,23H7.5C5.015,23,3,20.985,3,18.5
			c0-2.379,1.852-4.306,4.189-4.469C7.07,13.54,7,13.028,7,12.5C7,8.91,9.91,6,13.5,6c2.76,0,5.115,1.722,6.057,4.15l0.744-0.743
			C19.118,6.816,16.528,5,13.5,5C9.364,5,6,8.364,6,12.5c0,0.238,0.014,0.472,0.036,0.704C3.713,13.848,2,15.975,2,18.5
			C2,21.533,4.467,24,7.5,24h1.207L24.396,8.312L23.688,7.605z M26.619,15.107c-0.163-0.042-0.384-0.093-0.637-0.149
			C25.984,14.898,26,14.842,26,14.781c0-1.499-0.707-2.823-1.79-3.7l-0.706,0.706c0,0,0,0,0.001,0
			c-1.881,1.88-9.655,9.655-11.568,11.568C10.206,25.086,11.276,28,13.86,28h6.761L19,29.621l0.707,0.707l2.828-2.828l-2.828-2.828
			L19,25.379L20.621,27H13.86c-1.611,0-2.351-1.803-1.215-2.938c1.162-1.162,9.58-9.58,11.56-11.56
			C24.694,13.136,25,13.918,25,14.781c0,0.335-0.058,0.653-0.139,0.962c0.629,0.128,1.183,0.248,1.506,0.332
			C27.882,16.468,29,17.844,29,19.481C29,21.425,27.425,23,25.481,23h-10.19l-1,1h11.19C27.973,24,30,21.973,30,19.481
			C30,17.422,28.609,15.624,26.619,15.107z"/>
	</g>
</g>
</svg>
