<?xml version="1.0" encoding="utf-8"?>
<!-- Generator: Adobe Illustrator 15.0.0, SVG Export Plug-In . SVG Version: 6.00 Build 0)  -->
<!DOCTYPE svg PUBLIC "-//W3C//DTD SVG 1.1//EN" "http://www.w3.org/Graphics/SVG/1.1/DTD/svg11.dtd">
<svg version="1.1" id="Layer_1" xmlns="http://www.w3.org/2000/svg" xmlns:xlink="http://www.w3.org/1999/xlink" x="0px" y="0px"
	 width="32px" height="32px" viewBox="0 0 32 32" enable-background="new 0 0 32 32" xml:space="preserve">
<polygon fill-rule="evenodd" clip-rule="evenodd" fill="#8BC72A" points="20.5,7.646 19.793,8.354 21.439,10 4.802,10 3.313,16 
	4.833,22 21.439,22 19.793,23.646 20.5,24.354 28.854,16 "/>
<g>
	<g>
		<path fill="#413A4D" d="M16,3C8.82,3,3,8.82,3,16s5.82,13,13,13s13-5.82,13-13S23.18,3,16,3z M16,28
			c-4.438,0-8.306-2.417-10.381-6h8.019c0.128,0,0.241-0.006,0.363-0.008V24h1v-2.054c3.573-0.28,4.003-1.707,4.003-3.237
			c0-1.904-1.366-2.823-3.929-3.204C12.261,15.087,12,14.056,12,13.042C12,12.493,12.189,11,14.715,11h7.725l-1-1H15V8h-1v2.051
			c-2.191,0.245-3,1.595-3,2.991c0,2.523,2.187,3.194,3.926,3.453c2.621,0.389,3.077,1.298,3.077,2.214
			c0,1.854-1.51,2.291-4.366,2.291H5.102C4.401,19.477,4,17.787,4,16C4,9.373,9.373,4,16,4s12,5.373,12,12S22.627,28,16,28z"/>
	</g>
</g>
</svg>
