<?xml version="1.0" encoding="utf-8"?>
<!-- Generator: Adobe Illustrator 15.0.0, SVG Export Plug-In . SVG Version: 6.00 Build 0)  -->
<!DOCTYPE svg PUBLIC "-//W3C//DTD SVG 1.1//EN" "http://www.w3.org/Graphics/SVG/1.1/DTD/svg11.dtd">
<svg version="1.1" id="Layer_1" xmlns="http://www.w3.org/2000/svg" xmlns:xlink="http://www.w3.org/1999/xlink" x="0px" y="0px"
	 width="32px" height="32px" viewBox="0 0 32 32" enable-background="new 0 0 32 32" xml:space="preserve">
<path fill-rule="evenodd" clip-rule="evenodd" fill="#8BC72A" d="M22,10H10v12h12V10z"/>
<polygon fill-rule="evenodd" clip-rule="evenodd" fill="#413A4D" points="10,6 10,10 6,10 6,9 8.293,9 3,3.707 3.707,3 9,8.293 9,6 
	"/>
<polygon fill-rule="evenodd" clip-rule="evenodd" fill="#413A4D" points="9,26 9,23.707 3.707,29 3,28.293 8.293,23 6,23 6,22 
	10,22 10,26 "/>
<polygon fill-rule="evenodd" clip-rule="evenodd" fill="#413A4D" points="23,6 23,8.293 28.293,3 29,3.707 23.707,9 26,9 26,10 
	22,10 22,6 "/>
<polygon fill-rule="evenodd" clip-rule="evenodd" fill="#413A4D" points="22,26 22,22 26,22 26,23 23.707,23 29,28.293 28.293,29 
	23,23.707 23,26 "/>
<polygon fill-rule="evenodd" clip-rule="evenodd" fill="#413A4D" points="17.5,18.207 14.146,14.854 14.854,14.146 17.5,16.793 
	24.146,10.146 24.854,10.854 "/>
</svg>
