<?xml version="1.0" encoding="utf-8"?>
<!-- Generator: Adobe Illustrator 15.0.0, SVG Export Plug-In . SVG Version: 6.00 Build 0)  -->
<!DOCTYPE svg PUBLIC "-//W3C//DTD SVG 1.1//EN" "http://www.w3.org/Graphics/SVG/1.1/DTD/svg11.dtd">
<svg version="1.1" id="Layer_1" xmlns="http://www.w3.org/2000/svg" xmlns:xlink="http://www.w3.org/1999/xlink" x="0px" y="0px"
	 width="32px" height="32px" viewBox="0 0 32 32" enable-background="new 0 0 32 32" xml:space="preserve">
<path fill-rule="evenodd" clip-rule="evenodd" fill="#E66910" d="M26,28H6V13h20V28z M16,15c-3.037,0-5.5,2.463-5.5,5.5
	c0,3.038,2.463,5.5,5.5,5.5c3.038,0,5.5-2.462,5.5-5.5C21.5,17.463,19.038,15,16,15z"/>
<g>
	<g>
		<path fill-rule="evenodd" clip-rule="evenodd" fill="#413A4D" d="M26.499,13H23V9c0-3.867-3.133-7-7-7c-3.867,0-7,3.133-7,7v4H5.5
			C5.224,13,5,13.224,5,13.5v14C5,27.776,5.224,28,5.5,28h20.999c0.276,0,0.5-0.224,0.5-0.5v-14C26.999,13.224,26.775,13,26.499,13z
			 M10,9c0-3.314,2.686-6,6-6s6,2.686,6,6v4h-2V9c0-2.209-1.79-4-4-4c-2.209,0-4,1.791-4,4v4h-2V9z M19,9c0,0.839,0,4,0,4h-6
			c0,0,0-3.161,0-4c0-1.657,1.343-3,3-3S19,7.343,19,9z M26,27H5.999V14H26V27z M19.996,20h-7.992v1h7.992V20z"/>
	</g>
</g>
</svg>
