<?xml version="1.0" encoding="utf-8"?>
<!-- Generator: Adobe Illustrator 15.0.0, SVG Export Plug-In . SVG Version: 6.00 Build 0)  -->
<!DOCTYPE svg PUBLIC "-//W3C//DTD SVG 1.1//EN" "http://www.w3.org/Graphics/SVG/1.1/DTD/svg11.dtd">
<svg version="1.1" id="Layer_1" xmlns="http://www.w3.org/2000/svg" xmlns:xlink="http://www.w3.org/1999/xlink" x="0px" y="0px"
	 width="32px" height="32px" viewBox="0 0 32 32" enable-background="new 0 0 32 32" xml:space="preserve">
<path fill-rule="evenodd" clip-rule="evenodd" fill="#34B5C7" d="M16.011,3.43l2.718,8.227C18.796,11.861,18.987,12,19.204,12h8.795
	l-7.103,5.101c-0.178,0.127-0.252,0.355-0.184,0.563l2.706,8.188l-7.067-5.068c-0.087-0.063-0.189-0.094-0.292-0.094L16.011,3.43z"
	/>
<g>
	<g>
		<path fill-rule="evenodd" clip-rule="evenodd" fill="#413A4D" d="M28.952,11.693C28.819,11.28,28.435,11,27.999,11h-8.434
			L16.96,3.15c-0.136-0.408-0.519-0.65-0.949-0.65c-0.002,0-0.002,0-0.002,0c-0.434,0-0.815,0.244-0.949,0.654L12.492,11H4.109
			c-0.435,0-0.819,0.28-0.952,0.693c-0.134,0.414,0.017,0.865,0.369,1.119l6.789,4.869l-2.562,7.864
			c-0.135,0.411,0.011,0.861,0.359,1.117c0.176,0.128,0.383,0.192,0.591,0.192c0.204,0,0.409-0.063,0.583-0.188l6.773-4.864
			l6.775,4.859c0.174,0.125,0.379,0.188,0.584,0.188c0.207,0,0.416-0.064,0.592-0.194c0.348-0.257,0.492-0.708,0.357-1.119
			l-2.59-7.839l6.805-4.886C28.937,12.559,29.085,12.106,28.952,11.693z M20.896,17.101c-0.178,0.127-0.252,0.355-0.184,0.563
			l2.706,8.188l-7.067-5.068c-0.087-0.063-0.189-0.094-0.292-0.094c-0.102,0-0.204,0.031-0.291,0.094l-7.065,5.073l2.675-8.211
			c0.068-0.208-0.006-0.435-0.184-0.562L4.109,12h8.746c0.217,0,0.408-0.14,0.476-0.346l2.681-8.225l2.718,8.227
			C18.796,11.861,18.987,12,19.204,12h8.795L20.896,17.101z"/>
	</g>
</g>
</svg>
