<?xml version="1.0" encoding="utf-8"?>
<!-- Generator: Adobe Illustrator 15.0.0, SVG Export Plug-In . SVG Version: 6.00 Build 0)  -->
<!DOCTYPE svg PUBLIC "-//W3C//DTD SVG 1.1//EN" "http://www.w3.org/Graphics/SVG/1.1/DTD/svg11.dtd">
<svg version="1.1" id="Layer_1" xmlns="http://www.w3.org/2000/svg" xmlns:xlink="http://www.w3.org/1999/xlink" x="0px" y="0px"
	 width="32px" height="32px" viewBox="0 0 32 32" enable-background="new 0 0 32 32" xml:space="preserve">
<g>
	<polygon fill="#8BC72A" points="7.349,5.001 10.417,18.048 24.164,16.027 25.738,5.001 	"/>
</g>
<g>
	<g>
		<path fill-rule="evenodd" clip-rule="evenodd" fill="#413A4D" d="M23.508,24.996c-0.829,0-1.502,0.673-1.502,1.502
			c0,0.83,0.673,1.502,1.502,1.502c0.83,0,1.502-0.672,1.502-1.502C25.01,25.669,24.338,24.996,23.508,24.996z M8.508,24.996
			c-0.829,0-1.502,0.673-1.502,1.502c0,0.83,0.673,1.502,1.502,1.502c0.83,0,1.502-0.672,1.502-1.502
			C10.01,25.669,9.338,24.996,8.508,24.996z M27.771,7.346c-0.19-0.22-0.466-0.345-0.756-0.345H6.114L5.59,4.772
			C5.482,4.32,5.08,4.001,4.615,4.001H2v1h2.615l3.637,15.454L7.25,22.554c-0.155,0.31-0.139,0.678,0.043,0.973
			c0.183,0.295,0.509,0.475,0.855,0.475h16.859v-1H8.145l0.868-1.818l16.759-2.464c0.438-0.064,0.781-0.409,0.844-0.849l1.39-9.729
			C28.047,7.855,27.961,7.564,27.771,7.346z M25.61,17.729L9.205,20.142L6.349,8.001H27L25.61,17.729z M21.854,9.858l-0.708-0.707
			l-5.656,5.656l-2.121-2.121l-0.707,0.707l2.828,2.828L21.854,9.858z"/>
	</g>
</g>
</svg>
