<?xml version="1.0" encoding="utf-8"?>
<!-- Generator: Adobe Illustrator 15.0.0, SVG Export Plug-In . SVG Version: 6.00 Build 0)  -->
<!DOCTYPE svg PUBLIC "-//W3C//DTD SVG 1.1//EN" "http://www.w3.org/Graphics/SVG/1.1/DTD/svg11.dtd">
<svg version="1.1" id="Layer_1" xmlns="http://www.w3.org/2000/svg" xmlns:xlink="http://www.w3.org/1999/xlink" x="0px" y="0px"
	 width="32px" height="32px" viewBox="0 0 32 32" enable-background="new 0 0 32 32" xml:space="preserve">
<path fill-rule="evenodd" clip-rule="evenodd" fill="#E66910" d="M28,8c0-0.552-0.447-1-1-1H5C4.448,7,4,7.448,4,8v2h24V8z"/>
<g>
	<g>
		<path fill-rule="evenodd" clip-rule="evenodd" fill="#413A4D" d="M27,5H5C3.343,5,2,6.343,2,8v16c0,1.656,1.343,3,3,3h22
			c1.656,0,3-1.344,3-3V8C30,6.343,28.656,5,27,5z M29,24c0,1.104-0.896,2-2,2H5c-1.104,0-2-0.896-2-2V8c0-1.104,0.896-2,2-2h22
			c1.104,0,2,0.896,2,2V24z"/>
	</g>
</g>
<rect x="4" y="13" fill-rule="evenodd" clip-rule="evenodd" fill="#34B5C7" width="14" height="8"/>
<rect x="4" y="22" fill-rule="evenodd" clip-rule="evenodd" fill="#34B5C7" width="6" height="2"/>
<rect x="12" y="22" fill-rule="evenodd" clip-rule="evenodd" fill="#34B5C7" width="6" height="2"/>
<rect x="19" y="13" fill-rule="evenodd" clip-rule="evenodd" fill="#413A4D" width="9" height="1"/>
<rect x="19" y="17" fill-rule="evenodd" clip-rule="evenodd" fill="#413A4D" width="9" height="1"/>
<rect x="19" y="15" fill-rule="evenodd" clip-rule="evenodd" fill="#413A4D" width="9" height="1"/>
<rect x="19" y="19" fill-rule="evenodd" clip-rule="evenodd" fill="#413A4D" width="9" height="1"/>
<rect x="19" y="21" fill-rule="evenodd" clip-rule="evenodd" fill="#413A4D" width="9" height="1"/>
<rect x="19" y="23" fill-rule="evenodd" clip-rule="evenodd" fill="#413A4D" width="9" height="1"/>
</svg>
