<?xml version="1.0" encoding="utf-8"?>
<!-- Generator: Adobe Illustrator 15.0.0, SVG Export Plug-In . SVG Version: 6.00 Build 0)  -->
<!DOCTYPE svg PUBLIC "-//W3C//DTD SVG 1.1//EN" "http://www.w3.org/Graphics/SVG/1.1/DTD/svg11.dtd">
<svg version="1.1" id="Layer_1" xmlns="http://www.w3.org/2000/svg" xmlns:xlink="http://www.w3.org/1999/xlink" x="0px" y="0px"
	 width="32px" height="32px" viewBox="0 0 32 32" enable-background="new 0 0 32 32" xml:space="preserve">
<path fill-rule="evenodd" clip-rule="evenodd" fill="#413A4D" d="M28,16c0,6.627-5.373,12-12,12S4,22.627,4,16S9.373,4,16,4
	S28,9.373,28,16z M16,3C8.82,3,3,8.82,3,16s5.82,13,13,13s13-5.82,13-13S23.18,3,16,3z"/>
<path fill-rule="evenodd" clip-rule="evenodd" fill="#34B5C7" d="M16,16H6c0-5.522,4.477-10,10-10V16z"/>
<path fill-rule="evenodd" clip-rule="evenodd" fill="#E66910" d="M24.994,20.376C23.371,23.705,19.953,26,16,26
	c-5.523,0-10-4.479-10-10h10L24.994,20.376z"/>
<path fill-rule="evenodd" clip-rule="evenodd" fill="#8BC72A" d="M16,16V6c3.326,0,6.271,1.625,8.09,4.123L16,16z"/>
</svg>
