<?xml version="1.0" encoding="utf-8"?>
<!-- Generator: Adobe Illustrator 15.0.0, SVG Export Plug-In . SVG Version: 6.00 Build 0)  -->
<!DOCTYPE svg PUBLIC "-//W3C//DTD SVG 1.1//EN" "http://www.w3.org/Graphics/SVG/1.1/DTD/svg11.dtd">
<svg version="1.1" id="Layer_1" xmlns="http://www.w3.org/2000/svg" xmlns:xlink="http://www.w3.org/1999/xlink" x="0px" y="0px"
	 width="32px" height="32px" viewBox="0 0 32 32" enable-background="new 0 0 32 32" xml:space="preserve">
<path fill-rule="evenodd" clip-rule="evenodd" fill="#8BC72A" d="M5,5v8h3.435c1.029-2.913,3.798-5,7.065-5
	c4.146,0,7.5,3.354,7.5,7.5S19.646,23,15.5,23c-3.267,0-6.036-2.088-7.065-5H5v8h21V5H5z"/>
<g>
	<g>
		<path fill="#413A4D" d="M25.5,4h-20C4.672,4,4,4.672,4,5.5V13h1V5.5C5,5.225,5.225,5,5.5,5h20C25.776,5,26,5.225,26,5.5v20
			c0,0.276-0.224,0.5-0.5,0.5h-20C5.225,26,5,25.776,5,25.5V18H4v7.5C4,26.328,4.672,27,5.5,27h20c0.828,0,1.5-0.672,1.5-1.5v-20
			C27,4.672,26.328,4,25.5,4z M12.858,19.479l0.708,0.706l4.678-4.688l-4.688-4.677l-0.705,0.708L16.329,15H2v1h14.331
			L12.858,19.479z"/>
	</g>
</g>
</svg>
