<?xml version="1.0" encoding="utf-8"?>
<!-- Generator: Adobe Illustrator 15.0.0, SVG Export Plug-In . SVG Version: 6.00 Build 0)  -->
<!DOCTYPE svg PUBLIC "-//W3C//DTD SVG 1.1//EN" "http://www.w3.org/Graphics/SVG/1.1/DTD/svg11.dtd">
<svg version="1.1" id="Layer_1" xmlns="http://www.w3.org/2000/svg" xmlns:xlink="http://www.w3.org/1999/xlink" x="0px" y="0px"
	 width="32px" height="32px" viewBox="0 0 32 32" enable-background="new 0 0 32 32" xml:space="preserve">
<g>
	<g>
		<path fill-rule="evenodd" clip-rule="evenodd" fill="#34B5C7" d="M19.5,9C17.936,9,17,8.252,17,7c0-0.564,0.282-0.972,0.531-1.333
			C17.783,5.304,18,4.99,18,4.5C18,3.673,17.104,3,16,3s-2,0.673-2,1.5c0,0.49,0.218,0.804,0.468,1.167C14.718,6.028,15,6.436,15,7
			c0,1.252-0.936,2-2.5,2c-2.458,0-4.983-1.211-5.967-1.776C6.005,8.118,5,10.317,5,12.5C5,14,5.753,14,6,14
			c0.24,0,0.438-0.128,0.764-0.354C7.182,13.358,7.698,13,8.5,13c0.735,0,1.391,0.391,1.849,1c0.825-2.329,3.04-4,5.651-4
			c3.313,0,6,2.687,6,6s-2.687,6-6,6c-2.611,0-4.826-1.671-5.651-3.999C9.891,18.609,9.235,19,8.5,19
			c-0.802,0-1.318-0.357-1.736-0.646C6.438,18.128,6.24,18,6,18c-0.247,0-1,0-1,1.5c0,2.188,1.005,4.383,1.532,5.277
			C7.517,24.212,10.042,23,12.5,23c1.564,0,2.5,0.747,2.5,2c0,0.566-0.292,0.977-0.549,1.339c-0.258,0.362-0.48,0.675-0.48,1.161
			c0,0.827,0.91,1.5,2.029,1.5s2.029-0.673,2.029-1.5c0-0.486-0.223-0.799-0.48-1.162C17.291,25.977,17,25.566,17,25
			c0-1.253,0.936-2,2.5-2c2.219,0,4.385,0.896,5.5,1.501V7.5C23.884,8.105,21.718,9,19.5,9z"/>
	</g>
</g>
<g>
	<g>
		<path fill="#413A4D" d="M28,15.5h-2v-9c0-0.275-0.222-0.498-0.496-0.5c-0.008,0-0.005,0-0.003,0h-0.007
			c-0.094,0.001-0.188,0.028-0.271,0.084C25.193,6.103,22.314,8,19.5,8C18,8,18,7.247,18,7c0-0.24,0.128-0.437,0.354-0.764
			C18.643,5.82,19,5.302,19,4.5C19,3.122,17.654,2,16,2s-3,1.122-3,2.5c0,0.802,0.357,1.32,0.646,1.736C13.872,6.563,14,6.76,14,7
			c0,0.247,0,1-1.5,1C9.691,8,6.807,6.103,6.775,6.084C6.547,5.931,6.236,5.993,6.084,6.223C5.999,6.351,4,9.384,4,12.5
			C4,14.065,4.747,15,6,15c0.563,0,0.973-0.282,1.332-0.532C7.695,14.217,8.01,14,8.5,14c0.827,0,1.5,0.897,1.5,2
			c0,1.104-0.673,2-1.5,2c-0.49,0-0.805-0.218-1.168-0.468C6.973,17.282,6.563,17,6,17c-1.253,0-2,0.936-2,2.5
			c0,3.115,1.999,6.148,2.084,6.277c0.152,0.229,0.463,0.291,0.693,0.139C6.807,25.896,9.686,24,12.5,24c1.5,0,1.5,0.753,1.5,1
			c0,0.236-0.139,0.441-0.363,0.758c-0.297,0.418-0.666,0.938-0.666,1.742c0,1.378,1.359,2.5,3.029,2.5s3.029-1.122,3.029-2.5
			c0-0.807-0.369-1.324-0.666-1.742C18.139,25.441,18,25.236,18,25c0-0.247,0-1,1.5-1c2.809,0,5.693,1.896,5.723,1.916
			c0.083,0.055,0.177,0.082,0.27,0.083h0.015C25.779,25.995,26,25.774,26,25.5v-9h2V15.5z M25,24.501
			C23.885,23.896,21.719,23,19.5,23c-1.564,0-2.5,0.747-2.5,2c0,0.566,0.291,0.977,0.549,1.338c0.258,0.363,0.48,0.676,0.48,1.162
			c0,0.827-0.91,1.5-2.029,1.5s-2.029-0.673-2.029-1.5c0-0.486,0.223-0.799,0.48-1.161C14.708,25.977,15,25.566,15,25
			c0-1.253-0.936-2-2.5-2c-2.458,0-4.983,1.212-5.968,1.777C6.005,23.883,5,21.688,5,19.5C5,18,5.753,18,6,18
			c0.24,0,0.438,0.128,0.764,0.354C7.182,18.643,7.698,19,8.5,19c1.378,0,2.5-1.346,2.5-3c0-1.654-1.122-3-2.5-3
			c-0.802,0-1.318,0.358-1.736,0.646C6.438,13.872,6.24,14,6,14c-0.247,0-1,0-1-1.5c0-2.183,1.005-4.382,1.533-5.276
			C7.517,7.789,10.042,9,12.5,9C14.064,9,15,8.252,15,7c0-0.564-0.282-0.972-0.532-1.333C14.218,5.304,14,4.99,14,4.5
			C14,3.673,14.896,3,16,3s2,0.673,2,1.5c0,0.49-0.217,0.804-0.469,1.167C17.282,6.028,17,6.436,17,7c0,1.252,0.936,2,2.5,2
			c2.218,0,4.384-0.895,5.5-1.5v8h-9.793l2.146-2.146l-0.707-0.707L13.293,16l3.354,3.354l0.707-0.707L15.207,16.5H25V24.501z"/>
	</g>
</g>
</svg>
