<?xml version="1.0" encoding="utf-8"?>
<!-- Generator: Adobe Illustrator 15.0.0, SVG Export Plug-In . SVG Version: 6.00 Build 0)  -->
<!DOCTYPE svg PUBLIC "-//W3C//DTD SVG 1.1//EN" "http://www.w3.org/Graphics/SVG/1.1/DTD/svg11.dtd">
<svg version="1.1" id="Layer_1" xmlns="http://www.w3.org/2000/svg" xmlns:xlink="http://www.w3.org/1999/xlink" x="0px" y="0px"
	 width="32px" height="32px" viewBox="0 0 32 32" enable-background="new 0 0 32 32" xml:space="preserve">
<path fill-rule="evenodd" clip-rule="evenodd" fill="#34B5C7" d="M17.5,23c-0.064,0-0.13-0.013-0.191-0.038
	C17.122,22.885,17,22.702,17,22.5v-5c0-0.202,0.122-0.385,0.309-0.462c0.187-0.076,0.402-0.034,0.545,0.108l3.5,3.5
	c0.143,0.143,0.186,0.358,0.108,0.545S21.202,21.5,21,21.5h-1.793l-1.354,1.354C17.758,22.949,17.63,23,17.5,23z M18,18.707v2.586
	l0.646-0.646C18.74,20.553,18.867,20.5,19,20.5h0.793L18,18.707z"/>
<g>
	<g>
		<path fill-rule="evenodd" clip-rule="evenodd" fill="#413A4D" d="M26,26v0.981c-10.293-0.185-13.333-1.812-14.027-3.565
			c-0.757-1.914,0.213-5.123,3.867-8.549c3.598-3.321,4.096-5.524,3.731-6.456C18.08,4.599,9.933,4.063,6,4.001V3H3v3h3V5.028
			c4.709,0.131,11.492,0.816,12.639,3.747c0.455,1.164-1.666,3.684-3.48,5.36c-4.042,3.79-5.052,7.282-4.116,9.649
			c1.17,2.958,6.074,4.063,14.958,4.2V29h3v-3H26z"/>
	</g>
</g>
<g>
	<g>
		<path fill-rule="evenodd" clip-rule="evenodd" fill="#8BC72A" d="M25.5,3C24.672,3,24,3.671,24,4.5
			c0,0.231,0.057,0.447,0.15,0.643L16.293,13H14v2.293l-8.857,8.856C4.947,24.057,4.731,24,4.5,24C3.671,24,3,24.672,3,25.5
			S3.671,27,4.5,27S6,26.328,6,25.5c0-0.231-0.057-0.447-0.15-0.644L14.707,16H17v-2.293l7.857-7.857C25.053,5.943,25.269,6,25.5,6
			C26.328,6,27,5.329,27,4.5S26.328,3,25.5,3z"/>
	</g>
</g>
</svg>
