<?xml version="1.0" encoding="utf-8"?>
<!-- Generator: Adobe Illustrator 15.0.0, SVG Export Plug-In . SVG Version: 6.00 Build 0)  -->
<!DOCTYPE svg PUBLIC "-//W3C//DTD SVG 1.1//EN" "http://www.w3.org/Graphics/SVG/1.1/DTD/svg11.dtd">
<svg version="1.1" id="Layer_1" xmlns="http://www.w3.org/2000/svg" xmlns:xlink="http://www.w3.org/1999/xlink" x="0px" y="0px"
	 width="32px" height="32px" viewBox="0 0 32 32" enable-background="new 0 0 32 32" xml:space="preserve">
<g>
	<g>
		<path fill-rule="evenodd" clip-rule="evenodd" fill="#34B5C7" d="M11.093,10H15V6.205C13.878,6.887,12.333,8.092,11.093,10z
			 M21.985,18H16v6h4.5C21.323,22.426,21.913,20.453,21.985,18z M16,6.209V10h3.907C18.666,8.094,17.122,6.891,16,6.209z
			 M13.879,5.848C10.897,6.26,8.281,7.792,6.45,10h3.446C11.124,7.906,12.707,6.595,13.879,5.848z M22.974,18
			c-0.066,2.426-0.581,4.411-1.333,6h3.661c1.155-1.732,1.861-3.784,1.956-6H22.974z M9.365,11H5.701
			c-1.151,1.732-1.861,3.785-1.955,6h4.27C8.082,14.568,8.614,12.594,9.365,11z M22.983,17h4.27c-0.093-2.216-0.804-4.268-1.955-6
			h-3.662C22.387,12.594,22.918,14.568,22.983,17z M20.494,11H16v6h5.982C21.91,14.546,21.315,12.575,20.494,11z M21.104,10h3.445
			c-1.828-2.201-4.438-3.729-7.413-4.143C18.307,6.605,19.881,7.915,21.104,10z M19.918,25H16v3.791
			C17.124,28.108,18.674,26.908,19.918,25z M9.018,17H15v-6h-4.493C9.685,12.576,9.09,14.547,9.018,17z M8.026,18H3.743
			c0.094,2.215,0.8,4.268,1.954,6h3.662C8.607,22.411,8.093,20.426,8.026,18z M17.135,29.144c2.977-0.414,5.592-1.942,7.423-4.144
			H21.11C19.885,27.085,18.307,28.395,17.135,29.144z M10.5,24H15v-6H9.015C9.087,20.452,9.677,22.426,10.5,24z M9.889,25H6.44
			c1.835,2.208,4.455,3.74,7.439,4.152C12.706,28.405,11.12,27.094,9.889,25z M15,28.796V25h-3.918
			C12.326,26.909,13.876,28.112,15,28.796z"/>
	</g>
</g>
<g>
	<g>
		<path fill-rule="evenodd" clip-rule="evenodd" fill="#413A4D" d="M15.5,5C8.596,5,3,10.596,3,17.5C3,24.403,8.596,30,15.5,30
			C22.403,30,28,24.403,28,17.5C28,10.596,22.403,5,15.5,5z M15.5,28.995c-6.18,0-11.206-4.88-11.47-10.995h17.393l-1.987,1.995
			l0.709,0.706l3.175-3.189l-3.179-3.186l-0.694,0.697L21.396,17H4.03C4.294,10.885,9.32,6.005,15.5,6.005
			c6.349,0,11.495,5.146,11.495,11.495S21.849,28.995,15.5,28.995z"/>
	</g>
</g>
</svg>
